<?xml version="1.0" encoding="utf-8"?>
<!-- Generator: Adobe Illustrator 16.0.0, SVG Export Plug-In . SVG Version: 6.00 Build 0)  -->
<!DOCTYPE svg PUBLIC "-//W3C//DTD SVG 1.1//EN" "http://www.w3.org/Graphics/SVG/1.1/DTD/svg11.dtd">
<svg version="1.1" id="Layer_1" xmlns="http://www.w3.org/2000/svg" xmlns:xlink="http://www.w3.org/1999/xlink" x="0px" y="0px"
	 width="60px" height="710px" viewBox="0 0 60 710" enable-background="new 0 0 60 710" xml:space="preserve">
<g>
	<line fill="none" stroke="#000000" stroke-width="3" stroke-miterlimit="10" x1="8.598" y1="1.227" x2="8.598" y2="709.5"/>
	<line fill="none" stroke="#000000" stroke-width="3" stroke-miterlimit="10" x1="51.994" y1="709.5" x2="51.994" y2="1.227"/>
	<line fill="none" stroke="#000000" stroke-width="3" stroke-miterlimit="10" x1="8.598" y1="75" x2="51.994" y2="75"/>
	<line fill="none" stroke="#000000" stroke-width="3" stroke-miterlimit="10" x1="8.598" y1="105" x2="51.994" y2="105"/>
	<line fill="none" stroke="#000000" stroke-width="3" stroke-miterlimit="10" x1="8.598" y1="135" x2="51.994" y2="135"/>
	<line fill="none" stroke="#000000" stroke-width="3" stroke-miterlimit="10" x1="8.598" y1="165" x2="51.994" y2="165"/>
	<line fill="none" stroke="#000000" stroke-width="3" stroke-miterlimit="10" x1="8.598" y1="195" x2="51.994" y2="195"/>
	<line fill="none" stroke="#000000" stroke-width="3" stroke-miterlimit="10" x1="8.598" y1="225" x2="51.994" y2="225"/>
	<line fill="none" stroke="#000000" stroke-width="3" stroke-miterlimit="10" x1="8.598" y1="255" x2="51.994" y2="255"/>
	<line fill="none" stroke="#000000" stroke-width="3" stroke-miterlimit="10" x1="8.598" y1="285" x2="51.994" y2="285"/>
	<line fill="none" stroke="#000000" stroke-width="3" stroke-miterlimit="10" x1="8.598" y1="315" x2="51.994" y2="315"/>
	<line fill="none" stroke="#000000" stroke-width="3" stroke-miterlimit="10" x1="8.598" y1="345" x2="51.994" y2="345"/>
	<line fill="none" stroke="#000000" stroke-width="3" stroke-miterlimit="10" x1="8.598" y1="375" x2="51.994" y2="375"/>
	<line fill="none" stroke="#000000" stroke-width="3" stroke-miterlimit="10" x1="8.598" y1="405" x2="51.994" y2="405"/>
	<line fill="none" stroke="#000000" stroke-width="3" stroke-miterlimit="10" x1="8.598" y1="435" x2="51.994" y2="435"/>
	<line fill="none" stroke="#000000" stroke-width="3" stroke-miterlimit="10" x1="8.598" y1="465" x2="51.994" y2="465"/>
	<line fill="none" stroke="#000000" stroke-width="3" stroke-miterlimit="10" x1="8.598" y1="495" x2="51.994" y2="495"/>
	<line fill="none" stroke="#000000" stroke-width="3" stroke-miterlimit="10" x1="8.598" y1="525" x2="51.994" y2="525"/>
	<line fill="none" stroke="#000000" stroke-width="3" stroke-miterlimit="10" x1="8.598" y1="555" x2="51.994" y2="555"/>
	<line fill="none" stroke="#000000" stroke-width="3" stroke-miterlimit="10" x1="8.598" y1="585" x2="51.994" y2="585"/>
	<line fill="none" stroke="#000000" stroke-width="3" stroke-miterlimit="10" x1="8.598" y1="615" x2="51.994" y2="615"/>
	<line fill="none" stroke="#000000" stroke-width="3" stroke-miterlimit="10" x1="8.598" y1="645" x2="51.994" y2="645"/>
	<line fill="none" stroke="#000000" stroke-width="3" stroke-miterlimit="10" x1="8.598" y1="675" x2="51.994" y2="675"/>
	<line fill="none" stroke="#000000" stroke-width="3" stroke-miterlimit="10" x1="8.598" y1="45" x2="51.994" y2="45"/>
	<line fill="none" stroke="#000000" stroke-width="3" stroke-miterlimit="10" x1="8.598" y1="15" x2="51.994" y2="15"/>
</g>
</svg>
