<?xml version="1.0" encoding="utf-8"?>
<!-- Generator: Adobe Illustrator 16.0.0, SVG Export Plug-In . SVG Version: 6.00 Build 0)  -->
<!DOCTYPE svg PUBLIC "-//W3C//DTD SVG 1.1//EN" "http://www.w3.org/Graphics/SVG/1.1/DTD/svg11.dtd">
<svg version="1.1" id="Layer_1" xmlns="http://www.w3.org/2000/svg" xmlns:xlink="http://www.w3.org/1999/xlink" x="0px" y="0px"
	 width="1000px" height="1600px" viewBox="0 0 1000 1600" enable-background="new 0 0 1000 1600" xml:space="preserve">
<g>
	<path fill="#3850A2" stroke="#000000" stroke-width="2" stroke-miterlimit="10" d="M454.281,605.61c0,0-2.32-4.896-5.184-4.896l0,0
		c-2.865,0-5.188,2.192-5.188,4.896v70.207c0,2.701,2.322,4.896,5.188,4.896l0,0c2.863,0,5.184-4.896,5.184-4.896
		s2.815-11.698,2.815-35.104S454.281,605.61,454.281,605.61z"/>
	
		<rect x="438.889" y="597.269" fill="#D3D3D3" stroke="#000000" stroke-width="2" stroke-miterlimit="10" width="10.209" height="86.222"/>
</g>
<polygon fill="#727172" stroke="#000000" stroke-width="2" stroke-miterlimit="10" points="478.885,703.673 437.776,703.673 
	437.776,683.491 458.791,683.491 475.274,691.238 478.885,691.238 "/>
<path fill="#D3D3D3" stroke="#000000" stroke-width="2" stroke-miterlimit="10" d="M616.107,715.673c0,6.627-5.515,12-12.317,12
	H450.123c-6.803,0-12.317-5.373-12.317-12l0,0c0-6.627,0-12,0-12H614.01C616.107,703.673,616.107,709.046,616.107,715.673
	L616.107,715.673z"/>
</svg>
