<?xml version="1.0" encoding="utf-8"?>
<!-- Generator: Adobe Illustrator 16.0.0, SVG Export Plug-In . SVG Version: 6.00 Build 0)  -->
<!DOCTYPE svg PUBLIC "-//W3C//DTD SVG 1.1//EN" "http://www.w3.org/Graphics/SVG/1.1/DTD/svg11.dtd">
<svg version="1.1" xmlns="http://www.w3.org/2000/svg" xmlns:xlink="http://www.w3.org/1999/xlink" x="0px" y="0px" width="120px"
	 height="80px" viewBox="0 0 120 80" enable-background="new 0 0 120 80" xml:space="preserve">
<g id="hull" display="none">
	<g display="inline">
		<rect x="9.666" y="8.734" fill="#999999" width="101" height="62.333"/>
		<text transform="matrix(1 0 0 1 42.002 22.1753)" font-family="'Zian'" font-size="12">hull</text>
		<g>
			<path fill-rule="evenodd" clip-rule="evenodd" d="M50.034,34.365c3.298-0.759,6.474-1.495,9.654-2.21
				c0.312-0.07,0.668-0.069,0.981,0.001c3.18,0.715,6.356,1.452,9.516,2.178c0.045,0.087,0.108,0.152,0.107,0.216
				c-0.064,4.031,0.23,8.11-0.293,12.082c-0.725,5.485-4.184,9.14-9.26,11.238c-0.352,0.146-0.869,0.108-1.238-0.03
				c-5.542-2.104-9.344-7.459-9.457-13.387C49.982,41.119,50.034,37.782,50.034,34.365z"/>
			<path fill-rule="evenodd" clip-rule="evenodd" d="M73.338,31.083c-0.352,5.613,0.649,11.271-0.65,16.8
				c-1.484,6.308-5.473,10.586-11.488,12.93c-0.637,0.248-1.537,0.226-2.185-0.018c-7.272-2.725-11.909-9.357-12.029-17.196
				c-0.06-3.891,0.01-7.784-0.031-11.676c-0.008-0.756,0.289-0.998,0.962-1.146c3.792-0.833,7.564-1.767,11.373-2.519
				c0.949-0.187,2.024,0.088,3.01,0.297c3.332,0.706,6.651,1.477,9.975,2.227C72.591,30.854,72.9,30.958,73.338,31.083z
				 M48.868,33.265c0,3.535-0.015,6.943,0.003,10.353c0.035,6.869,4.036,12.681,10.438,15.119c0.461,0.176,1.099,0.193,1.559,0.025
				c6.366-2.334,10.493-8.269,10.519-15.062c0.011-3.119,0.002-6.237,0.002-9.356c0-0.356,0-0.712,0-1.091
				c-3.559-0.8-6.986-1.574-10.415-2.335c-0.387-0.086-0.814-0.203-1.183-0.122C56.183,31.588,52.584,32.418,48.868,33.265z"/>
		</g>
	</g>
</g>
<g id="galaxy" display="none">
	<g display="inline">
		<rect x="9.666" y="8.733" fill="#C74C9C" width="101" height="62.333"/>
		<text transform="matrix(1 0 0 1 32.9204 22.7749)" font-family="'Zian'" font-size="12">galaxy</text>
		<path fill-rule="evenodd" clip-rule="evenodd" d="M60.062,34.18c-5.979-1.439-12.959,2.186-13.496,8.763
			c-0.135,1.207,0,2.281,0.134,3.49c0.135,1.207,0.671,2.281,1.074,3.49c0.671,1.477,1.342,2.684,2.282,4.025
			c1.208,1.477,2.55,2.82,4.161,4.027c1.745,1.209,3.49,2.014,5.503,2.551c1.342,0.27,2.551,0.402,3.893,0.27
			c1.744-0.27,3.355-0.672,4.564-1.881c5.1-5.1,1.879-13.289-3.76-16.645c-0.67-0.402-1.342-0.805-2.012-1.074
			c-1.344-0.402-2.82-0.804-4.296-0.804c-1.074,0.134-2.147,0.134-3.087,0.804c-2.417,1.746-3.088,4.43-2.551,7.115
			c0.269-0.135,0.537,0.537,0.402,0.133c-0.671-4.832,3.893-8.859,8.458-7.113c1.477,0.537,2.818,1.207,4.025,2.148
			c0.941,0.805,1.611,1.609,2.418,2.549c0.537,0.807,1.207,1.611,1.477,2.551c0.268,0.939,0.67,1.879,0.805,2.953
			c0,0.807,0.135,1.477,0,2.283c-0.135,1.072-0.402,2.014-0.939,2.953c-0.402,0.67-0.805,1.477-1.477,1.879
			c-0.939,0.402-1.744,1.207-2.818,1.074c2.416-1.209,4.295-3.893,3.623-6.713c-1.879,5.102-8.188,6.176-12.349,2.953
			c-1.342-1.074-2.551-2.014-3.624-3.355c-0.806-1.207-1.611-2.416-2.014-3.758c-0.402-1.209-0.94-2.416-0.805-3.76
			c0.134-1.609,0.671-3.086,1.61-4.563c0.402-0.537,0.805-0.94,1.342-1.343c0.939-0.671,1.745-1.342,2.819-1.477
			c7.249-1.879,14.229,3.49,17.182,9.798c0.805,1.746,1.209,3.625,1.477,5.639c0.135,1.342-0.135,2.686-0.402,4.027
			c-0.404,1.342-0.941,2.551-1.881,3.625c-5.637,6.174-14.765,3.758-20.403-1.074c-1.744-1.611-3.355-3.088-4.43-5.236
			c4.967,6.176,14.901,11.947,22.149,6.176c-3.088,1.074-6.174,1.744-9.397,0.939c5.907,1.611,13.02-2.551,12.215-9.262
			c-0.135-1.344-0.402-2.686-0.939-4.027c-0.268-0.537-0.402-1.074-0.939-1.342c1.879,4.562,1.744,11.275-3.49,13.557
			c-4.295,1.744-8.859,0.27-12.618-2.416c-2.014-1.477-3.49-2.953-4.833-4.967c-0.805-1.342-1.477-2.551-2.013-4.027
			c-0.672-2.014-1.074-3.893-0.806-6.041c0.134-1.207,0.402-2.281,0.806-3.355c0.268-0.671,0.671-1.208,1.073-1.879
			c1.209-1.745,2.953-2.953,4.833-3.49c3.624-1.208,7.517-0.403,11.026,1.051C63.947,35.408,62.611,34.897,60.062,34.18z"/>
	</g>
</g>
<g id="oxygen" display="none">
	<g display="inline">
		<rect x="9.5" y="8.733" fill="#F37321" width="101" height="62.333"/>
		<text transform="matrix(1 0 0 1 33.1899 22.1748)" font-family="'Zian'" font-size="12">oxygen</text>
		<g>
			<path fill="none" stroke="#000000" stroke-width="2" stroke-miterlimit="10" d="M33.233,41.397
				c2.798-1.805,12.547-7.402,23.743,0.451c11.194,7.854,29.7-0.902,29.79-1.625"/>
			<path fill="none" stroke="#000000" stroke-width="2" stroke-miterlimit="10" d="M33.233,45.851
				c2.798-1.805,12.547-7.402,23.743,0.451c11.194,7.854,29.7-0.902,29.79-1.625"/>
			<path fill="none" stroke="#000000" stroke-width="2" stroke-miterlimit="10" d="M33.233,50.558
				c2.798-1.805,12.547-7.402,23.743,0.452c11.194,7.854,29.7-0.903,29.79-1.625"/>
		</g>
	</g>
</g>
<g id="radiation">
	<g>
		<rect x="9.499" y="8.833" fill="#DCE11F" width="101.001" height="62.333"/>
		<text transform="matrix(1 0 0 1 26.7095 22.2749)" font-family="'Zian'" font-size="12">radiation</text>
		<g>
			<path fill-rule="evenodd" clip-rule="evenodd" d="M59.984,31.243c8.35-0.004,15.043,6.685,15.037,15.027
				c-0.008,8.373-6.688,15.09-15,15.084c-8.338-0.006-15.043-6.712-15.043-15.047C44.978,37.94,51.646,31.247,59.984,31.243z
				 M73.732,46.322c0.023-7.613-6.053-13.743-13.664-13.786c-7.694-0.044-13.784,6.083-13.8,13.888
				C46.251,53.9,52.434,60.039,60.014,60.07C67.559,60.102,73.709,53.938,73.732,46.322z"/>
			<path fill-rule="evenodd" clip-rule="evenodd" d="M53.843,56.965c0.517-0.906,1.034-1.82,1.557-2.729
				c0.793-1.378,1.607-2.743,2.377-4.134c0.248-0.446,0.469-0.604,0.988-0.391c1.012,0.417,2.027,0.271,3.084-0.23
				c1.439,2.496,2.863,4.961,4.283,7.419C63.119,59.158,57.453,59.324,53.843,56.965z"/>
			<path fill-rule="evenodd" clip-rule="evenodd" d="M72.293,46.263c-2.879,0-5.711,0-8.605,0c-0.1-1.347-0.697-2.396-1.857-3.164
				c1.455-2.524,2.881-4.995,4.303-7.462C69.715,37.317,72.568,42.146,72.293,46.263z"/>
			<path fill-rule="evenodd" clip-rule="evenodd" d="M53.841,35.586c1.448,2.51,2.872,4.98,4.321,7.49
				c-1.078,0.816-1.795,1.797-1.836,3.182c-2.893,0-5.725,0-8.557,0C47.305,43.289,49.416,38.006,53.841,35.586z"/>
			<path fill-rule="evenodd" clip-rule="evenodd" d="M62.303,46.268c0.01,1.33-0.98,2.332-2.299,2.332
				c-1.33,0-2.301-0.984-2.301-2.328c0.002-1.303,0.957-2.267,2.256-2.278C61.307,43.98,62.295,44.939,62.303,46.268z"/>
		</g>
	</g>
</g>
<g id="plants" display="none">
	<g display="inline">
		<rect x="9.667" y="8.733" fill="#0FAF4B" width="101" height="62.333"/>
		<text transform="matrix(1 0 0 1 32.9199 22.1743)" font-family="'Zian'" font-size="12">plants</text>
		<g>
			<g>
				<path d="M64.18,63.234c0,0,0.365-0.227,0.969-0.652c0.6-0.428,1.443-1.049,2.342-1.877c0.889-0.832,1.857-1.871,2.52-3.131
					c0.678-1.25,0.99-2.709,0.793-4.172c-0.109-0.73-0.258-1.473-0.566-2.172c-0.279-0.701-0.604-1.396-0.986-2.039
					c-0.168-0.334-0.398-0.629-0.586-0.941s-0.385-0.613-0.6-0.893c-0.404-0.572-0.812-1.105-1.199-1.594
					c-0.375-0.498-0.762-0.924-1.08-1.326c-0.322-0.398-0.615-0.736-0.859-1.018c-0.48-0.564-0.746-0.906-0.746-0.906
					s0.371,0.209,1.008,0.607c0.316,0.199,0.709,0.436,1.121,0.758c0.414,0.314,0.91,0.646,1.383,1.086
					c0.496,0.418,1.021,0.887,1.525,1.443c0.525,0.533,1.041,1.148,1.516,1.83c0.471,0.686,0.953,1.42,1.291,2.258
					c0.379,0.814,0.611,1.732,0.764,2.662c0.096,0.945,0.041,1.914-0.168,2.834c-0.203,0.924-0.641,1.752-1.104,2.484
					c-0.465,0.74-1.039,1.348-1.613,1.861c-0.568,0.521-1.16,0.941-1.725,1.281c-1.119,0.697-2.141,1.082-2.854,1.318
					C64.604,63.166,64.18,63.234,64.18,63.234z"/>
			</g>
			<g>
				<path d="M70.057,51.238l0.688-2.406c0.221-0.797,0.436-1.592,0.562-2.396c0.162-0.795,0.242-1.598,0.268-2.387
					c0.018-0.791-0.059-1.566-0.18-2.318c-0.084-0.373-0.195-0.736-0.287-1.1l-0.43-1.038c-0.18-0.327-0.383-0.642-0.566-0.961
					c-0.199-0.312-0.455-0.593-0.674-0.891c-0.205-0.309-0.527-0.538-0.779-0.81l-0.402-0.394l-0.461-0.344
					c-0.293-0.213-0.633-0.494-0.885-0.651l-1.062-0.651l-0.527-0.332l-0.508-0.253l-1.008-0.512
					c-0.727-0.27-1.424-0.624-2.174-0.811c-0.371-0.103-0.734-0.236-1.109-0.315l-1.124-0.242c-0.755-0.115-1.512-0.246-2.272-0.255
					c-0.76-0.054-1.521-0.01-2.27,0.061c-0.751,0.074-1.488,0.22-2.202,0.405c-0.353,0.104-0.718,0.185-1.046,0.327l-0.506,0.19
					l-0.466,0.232c-0.587,0.293-1.192,0.743-1.338,1.009l-0.36-1.89c0.56,0.467,1.08,0.972,1.5,1.518
					c0.446,0.534,0.792,1.108,1.118,1.679c0.644,1.146,1.136,2.306,1.592,3.451c0.92,2.284,1.606,4.565,2.607,6.653
					c0.252,0.52,0.511,1.031,0.788,1.529c0.281,0.494,0.589,0.969,0.921,1.424c0.338,0.449,0.708,0.867,1.104,1.264l0.623,0.559
					l0.676,0.5c0.241,0.143,0.479,0.297,0.727,0.434l0.772,0.365l0.812,0.297l0.844,0.227c0.572,0.119,1.158,0.221,1.754,0.268
					c0.596,0.08,1.197,0.061,1.805,0.08c-0.594,0.105-1.191,0.254-1.803,0.301c-0.611,0.09-1.23,0.07-1.854,0.059l-0.938-0.084
					l-0.934-0.182l-0.918-0.279c-0.3-0.113-0.593-0.246-0.893-0.371c-0.289-0.145-0.569-0.307-0.856-0.461
					c-0.271-0.178-0.543-0.357-0.809-0.547c-0.51-0.402-0.992-0.838-1.437-1.309c-0.879-0.945-1.632-1.99-2.258-3.082
					c-1.252-2.184-2.204-4.455-3.164-6.613c-0.965-2.134-2.075-4.197-3.567-5.379l-1.039-0.822l0.679-1.067
					c0.743-1.169,1.608-1.636,2.458-2.135l0.646-0.332l0.655-0.263c0.436-0.191,0.881-0.304,1.324-0.439
					c0.891-0.244,1.795-0.386,2.699-0.466c0.902-0.072,1.811-0.104,2.708-0.03c0.901,0.03,1.789,0.191,2.671,0.346
					c0.876,0.19,1.742,0.424,2.574,0.746c0.854,0.265,1.635,0.698,2.447,1.055l1.184,0.676l0.588,0.341l0.51,0.357l1.014,0.729
					c0.426,0.319,0.701,0.604,1.057,0.907l0.502,0.449l0.453,0.515c0.287,0.356,0.627,0.656,0.861,1.061
					c0.246,0.389,0.521,0.756,0.736,1.162c0.189,0.422,0.391,0.837,0.559,1.261c0.131,0.442,0.268,0.88,0.379,1.32
					c0.066,0.451,0.148,0.898,0.191,1.345c0.006,0.449,0.043,0.898,0.018,1.342c-0.051,0.441-0.064,0.885-0.152,1.314
					c-0.15,0.861-0.363,1.701-0.65,2.506c-0.279,0.809-0.639,1.576-0.998,2.336L70.057,51.238z"/>
			</g>
		</g>
	</g>
</g>
<g id="fuel" display="none">
	<g display="inline">
		<rect x="9.503" y="8.833" fill="#CB2027" width="101" height="62.333"/>
		<text transform="matrix(1 0 0 1 41.8394 22.5708)" font-family="'Zian'" font-size="12">fuel</text>
		<g>
			<path d="M59.806,37.47L57.224,35h-9.33v29.292h23.426V37.47H59.806z M66.308,45.254c0,0.475-0.413,1.059-1.238,1.756
				l-3.088,3.078c0,0.018,1.31,1.318,3.929,3.9c0.265,0.314,0.397,0.635,0.397,0.961v0.24c0,0.678-0.404,1.174-1.211,1.488
				c-0.099,0.018-0.179,0.027-0.24,0.027h-0.369c-0.45,0-1.005-0.381-1.664-1.146l-3.217-3.143
				c-2.256,2.213-3.636,3.557-4.141,4.031c-0.277,0.172-0.523,0.258-0.74,0.258h-0.369c-0.549,0-0.998-0.338-1.35-1.016
				c-0.068-0.18-0.102-0.336-0.102-0.473v-0.24c0-0.535,0.369-1.094,1.109-1.672l3.217-3.217v-0.02
				c-2.705-2.66-4.059-4.014-4.059-4.057c-0.178-0.289-0.268-0.551-0.268-0.785v-0.232c0-0.609,0.342-1.09,1.025-1.441
				c0.18-0.068,0.34-0.102,0.481-0.102h0.259c0.438,0,0.921,0.295,1.451,0.887c2.305,2.281,3.475,3.424,3.512,3.43
				c2.688-2.699,4.092-4.066,4.215-4.104c0.26-0.143,0.49-0.213,0.693-0.213h0.259c0.585,0,1.051,0.34,1.396,1.018
				c0.074,0.178,0.111,0.334,0.111,0.471V45.254z"/>
			<path fill="none" stroke="#000000" stroke-width="3" stroke-miterlimit="10" d="M67.349,38.766c0-2.633,2.131-4.765,4.765-4.765"
				/>
		</g>
	</g>
</g>
<g id="shields" display="none">
	<g display="inline">
		<rect x="9.666" y="8.733" fill="#76CDD6" width="101" height="62.333"/>
		<text transform="matrix(1 0 0 1 31.543 22.1743)" font-family="'Zian'" font-size="12">shields</text>
		<g>
			<path d="M51.038,61.773c-1.38-0.588-2.64-1.451-3.778-2.588s-2.115-2.455-2.928-3.957c-0.812-1.502-1.443-3.135-1.893-4.896
				c-0.449-1.764-0.674-3.559-0.674-5.387c0-1.227,0.102-2.445,0.305-3.66c0.203-1.213,0.498-2.385,0.882-3.516
				c0.385-1.131,0.851-2.211,1.396-3.239s1.16-1.971,1.845-2.827c0.685-0.855,1.436-1.612,2.254-2.271s1.682-1.179,2.591-1.562
				v0.651c-1.155,0.92-2.12,1.996-2.896,3.229s-1.396,2.562-1.861,3.986c-0.465,1.425-0.794,2.92-0.986,4.485
				c-0.192,1.565-0.289,3.139-0.289,4.723c0,1.561,0.077,3.105,0.232,4.639c0.155,1.533,0.455,3,0.898,4.398
				c0.444,1.398,1.059,2.705,1.846,3.92c0.785,1.213,1.805,2.281,3.056,3.199V61.773z"/>
			<path d="M56.648,55.32c-0.862-0.367-1.649-0.906-2.361-1.615c-0.711-0.711-1.322-1.535-1.83-2.475
				c-0.508-0.938-0.901-1.959-1.183-3.061c-0.28-1.102-0.421-2.223-0.421-3.365c0-0.768,0.063-1.529,0.19-2.289
				c0.127-0.758,0.311-1.49,0.552-2.197c0.24-0.707,0.531-1.382,0.872-2.024s0.726-1.231,1.153-1.768
				c0.428-0.534,0.896-1.007,1.408-1.419c0.512-0.411,1.051-0.736,1.619-0.976v0.407c-0.722,0.574-1.324,1.247-1.81,2.018
				c-0.485,0.771-0.872,1.602-1.163,2.492c-0.291,0.89-0.496,1.824-0.616,2.802c-0.12,0.979-0.181,1.963-0.181,2.953
				c0,0.975,0.049,1.939,0.145,2.898c0.098,0.959,0.285,1.875,0.562,2.748c0.277,0.875,0.661,1.691,1.152,2.451
				c0.492,0.758,1.129,1.426,1.91,2V55.32z"/>
			<path d="M69.295,27.87c1.379,0.588,2.639,1.451,3.777,2.588s2.115,2.456,2.928,3.957c0.812,1.502,1.443,3.134,1.893,4.897
				c0.449,1.762,0.674,3.557,0.674,5.385c0,1.227-0.1,2.447-0.305,3.66c-0.203,1.213-0.496,2.387-0.881,3.518
				s-0.852,2.209-1.396,3.238c-0.545,1.027-1.16,1.971-1.846,2.826c-0.684,0.857-1.434,1.613-2.252,2.271s-1.684,1.178-2.592,1.562
				v-0.652c1.156-0.92,2.121-1.996,2.895-3.229c0.777-1.232,1.396-2.562,1.861-3.986c0.467-1.426,0.795-2.92,0.986-4.484
				c0.193-1.566,0.289-3.141,0.289-4.725c0-1.559-0.076-3.105-0.232-4.638c-0.154-1.533-0.453-2.999-0.898-4.398
				c-0.443-1.399-1.059-2.705-1.844-3.92c-0.787-1.214-1.805-2.28-3.057-3.2V27.87z"/>
			<path d="M63.684,34.322c0.863,0.367,1.65,0.906,2.361,1.617c0.713,0.711,1.322,1.535,1.83,2.474
				c0.508,0.938,0.902,1.958,1.184,3.06c0.281,1.102,0.422,2.225,0.422,3.365c0,0.768-0.064,1.529-0.191,2.289
				c-0.127,0.758-0.311,1.49-0.551,2.197c-0.242,0.707-0.531,1.383-0.873,2.023c-0.342,0.643-0.725,1.232-1.152,1.768
				s-0.898,1.008-1.408,1.42c-0.512,0.41-1.053,0.736-1.621,0.977v-0.408c0.723-0.574,1.326-1.246,1.811-2.018
				s0.873-1.602,1.162-2.492c0.291-0.889,0.498-1.824,0.617-2.803c0.121-0.979,0.182-1.963,0.182-2.953
				c0-0.973-0.049-1.939-0.146-2.898c-0.096-0.958-0.283-1.874-0.561-2.749s-0.662-1.691-1.154-2.449
				c-0.49-0.759-1.127-1.426-1.91-2.001V34.322z"/>
		</g>
	</g>
</g>
</svg>
