<?xml version="1.0" encoding="utf-8"?>
<!-- Generator: Adobe Illustrator 16.0.0, SVG Export Plug-In . SVG Version: 6.00 Build 0)  -->
<!DOCTYPE svg PUBLIC "-//W3C//DTD SVG 1.1//EN" "http://www.w3.org/Graphics/SVG/1.1/DTD/svg11.dtd">
<svg version="1.1" id="Layer_1" xmlns="http://www.w3.org/2000/svg" xmlns:xlink="http://www.w3.org/1999/xlink" x="0px" y="0px"
	 width="1000px" height="1600px" viewBox="0 0 1000 1600" enable-background="new 0 0 1000 1600" xml:space="preserve">
<g>
	<path fill="#3850A2" stroke="#000000" stroke-width="2" stroke-miterlimit="10" d="M572.821,743.365c0,0,2.32-4.896,5.184-4.896
		l0,0c2.864,0,5.186,2.192,5.186,4.896v70.207c0,2.701-2.321,4.896-5.186,4.896l0,0c-2.863,0-5.184-4.896-5.184-4.896
		s-2.816-11.698-2.816-35.104S572.821,743.365,572.821,743.365z"/>
	
		<rect x="578.005" y="735.024" fill="#D3D3D3" stroke="#000000" stroke-width="2" stroke-miterlimit="10" width="10.208" height="86.222"/>
</g>
<polygon fill="#727172" stroke="#000000" stroke-width="2" stroke-miterlimit="10" points="548.217,841.429 589.325,841.429 
	589.325,821.246 568.311,821.246 551.827,828.993 548.217,828.993 "/>
<path fill="#D3D3D3" stroke="#000000" stroke-width="2" stroke-miterlimit="10" d="M410.994,853.429c0,6.627,5.515,12,12.317,12
	h153.667c6.803,0,12.317-5.373,12.317-12l0,0c0-6.627,0-12,0-12H413.092C410.993,841.429,410.994,846.802,410.994,853.429
	L410.994,853.429z"/>
</svg>
