<?xml version="1.0" encoding="utf-8"?>
<!-- Generator: Adobe Illustrator 16.0.0, SVG Export Plug-In . SVG Version: 6.00 Build 0)  -->
<!DOCTYPE svg PUBLIC "-//W3C//DTD SVG 1.1//EN" "http://www.w3.org/Graphics/SVG/1.1/DTD/svg11.dtd">
<svg version="1.1" xmlns="http://www.w3.org/2000/svg" xmlns:xlink="http://www.w3.org/1999/xlink" x="0px" y="0px"
	 width="418.492px" height="689.209px" viewBox="0 0 418.492 689.209" enable-background="new 0 0 418.492 689.209"
	 xml:space="preserve">
<g id="svg8" sodipodi:docname="player.svg" inkscape:version="0.92.4 (5da689c313, 2019-01-14)" xmlns:dc="http://purl.org/dc/elements/1.1/" xmlns:cc="http://creativecommons.org/ns#" xmlns:rdf="http://www.w3.org/1999/02/22-rdf-syntax-ns#" xmlns:svg="http://www.w3.org/2000/svg" xmlns:sodipodi="http://sodipodi.sourceforge.net/DTD/sodipodi-0.dtd" xmlns:inkscape="http://www.inkscape.org/namespaces/inkscape">
</g>
<g id="Layer_2">
</g>
<g id="walking4" display="none">
	<path display="inline" fill="#EC2024" stroke="#000000" stroke-width="13" stroke-miterlimit="10" d="M158.533,650.442
		c-4.564-11.327-22.698-57.254-24.612-62.003c0,0-14.089-23.931,6.634-32.279l19.713-7.942l76.891-30.979
		c14.059-5.665,30.057,1.144,35.727,15.212l0,0c5.668,14.069-1.144,30.062-15.205,35.728l-81.163,32.699L158.533,650.442z"/>
	<path display="inline" fill="#EC2024" stroke="#000000" stroke-width="13" stroke-miterlimit="10" d="M361.583,246.683
		c0,64.498-88.336,93.612-152.824,93.612c-64.501,0-116.777-29.114-116.777-93.612c0-64.487,52.276-116.773,116.777-116.773
		C273.247,129.91,361.583,182.195,361.583,246.683z"/>
	<g id="XMLID_5_" display="inline">
		<g>
			<path fill="#EC2024" d="M267.625,425.133v61.49c0,42.18-11.12,85.369-47.101,85.369h-29.5c-35.97,0-65.15-43.189-65.15-85.369
				v-61.49c0-42.17,29.18-76.351,65.15-76.351h29.5C256.504,348.782,267.625,382.963,267.625,425.133z"/>
		</g>
		<g>
			<path fill="none" stroke="#000000" stroke-width="13" stroke-miterlimit="10" d="M267.625,486.623
				c0,42.18-11.12,85.369-47.101,85.369h-29.5c-35.97,0-65.15-43.189-65.15-85.369v-61.49c0-42.17,29.18-76.351,65.15-76.351h29.5
				c35.98,0,47.101,34.181,47.101,76.351V486.623z"/>
		</g>
	</g>
	<path display="inline" fill="#EC2024" stroke="#000000" stroke-width="13" stroke-miterlimit="10" d="M125.877,500.198
		c0,17.139-16.861,31.045-37.663,31.045l0,0c-20.812,0-37.683-13.906-37.683-31.045V371.348c0-17.147,16.871-31.053,37.683-31.053
		l0,0c20.802,0,37.663,13.905,37.663,31.053V500.198z"/>
	<path display="inline" stroke="#000000" stroke-width="13" stroke-miterlimit="10" d="M356.965,243.296
		c0,50.603-25.061,49.833-73.539,50.942c-53.076,1.211-80.922,6.67-80.922-18.194c0-79.368-5.757-136.692,24.275-136.692
		C279.157,130.7,356.965,192.693,356.965,243.296z"/>
	<polyline display="inline" fill="none" stroke="#000000" stroke-width="7" stroke-miterlimit="10" points="158.202,185.643 
		143.456,185.643 143.456,65.679 	"/>
	<path display="inline" stroke="#000000" stroke-miterlimit="10" d="M135.523,62.159c0,4.402,3.562,7.964,7.953,7.964
		c4.382,0,7.954-3.562,7.954-7.964c0-4.371-3.572-7.933-7.954-7.933C139.084,54.226,135.523,57.788,135.523,62.159z"/>
	<polyline display="inline" fill="none" stroke="#000000" stroke-width="7" stroke-miterlimit="10" points="158.202,185.643 
		143.456,185.643 143.456,65.679 	"/>
	<path display="inline" fill="#EC2024" stroke="#000000" stroke-width="13" stroke-miterlimit="10" d="M267.625,682.826
		c-12.212-0.063-71.03-0.742-76.143-0.769c0,0-27.481,3.982-27.364-18.362l0.113-21.249l0.436-82.897
		c0.082-15.157,12.438-27.387,27.604-27.308l0,0c15.169,0.079,27.377,12.44,27.298,27.598l-0.461,87.503L267.625,682.826z"/>
</g>
<g id="walking3" display="none">
	<path display="inline" fill="#91A4E8" stroke="#000000" stroke-width="13" stroke-miterlimit="10" d="M376.027,629.146
		c-10.156,6.781-59.283,39.135-63.535,41.973c0,0-20.547,18.68-32.953,0.096L267.74,653.54l-46.027-68.945
		c-8.416-12.607-5.018-29.658,7.596-38.08l0,0c12.615-8.422,29.65-5.01,38.066,7.596l48.586,72.777L376.027,629.146z"/>
	<path display="inline" fill="#91A4E8" stroke="#000000" stroke-width="13" stroke-miterlimit="10" d="M358.671,230.683
		c0,64.498-88.336,93.612-152.824,93.612c-64.502,0-116.778-29.114-116.778-93.612c0-64.487,52.276-116.773,116.778-116.773
		C270.335,113.91,358.671,166.195,358.671,230.683z"/>
	<g id="XMLID_3_" display="inline">
		<g>
			<path fill="#91A4E8" d="M264.713,409.133v61.49c0,42.18-11.12,85.369-47.101,85.369h-29.5c-35.97,0-65.15-43.189-65.15-85.369
				v-61.49c0-42.17,29.18-76.35,65.15-76.35h29.5C253.593,332.783,264.713,366.963,264.713,409.133z"/>
		</g>
		<g>
			<path fill="none" stroke="#000000" stroke-width="13" stroke-miterlimit="10" d="M264.713,470.623
				c0,42.18-11.12,85.369-47.101,85.369h-29.5c-35.97,0-65.15-43.189-65.15-85.369v-61.49c0-42.17,29.18-76.35,65.15-76.35h29.5
				c35.98,0,47.101,34.18,47.101,76.35V470.623z"/>
		</g>
	</g>
	<path display="inline" fill="#91A4E8" stroke="#000000" stroke-width="13" stroke-miterlimit="10" d="M122.966,484.198
		c0,17.139-16.861,31.045-37.663,31.045l0,0c-20.812,0-37.683-13.906-37.683-31.045V355.348c0-17.148,16.871-31.053,37.683-31.053
		l0,0c20.802,0,37.663,13.905,37.663,31.053V484.198z"/>
	<path display="inline" stroke="#000000" stroke-width="13" stroke-miterlimit="10" d="M354.054,227.296
		c0,50.603-25.061,49.833-73.539,50.942c-53.076,1.211-80.922,6.67-80.922-18.194c0-79.368-5.757-136.692,24.275-136.692
		C276.246,114.7,354.054,176.693,354.054,227.296z"/>
	<path display="inline" fill="#91A4E8" stroke="#000000" stroke-width="13" stroke-miterlimit="10" d="M85.293,681.195
		c-6.472-10.355-32.35-52.409-35.064-56.751c0,0-18.052-21.102,0.894-32.941l18.022-11.264l70.298-43.934
		c12.854-8.033,29.796-4.123,37.834,8.738l0,0c8.039,12.863,4.125,29.801-8.73,37.834l-74.204,46.373L85.293,681.195z"/>
	<polyline display="inline" fill="none" stroke="#000000" stroke-width="7" stroke-miterlimit="10" points="155.291,169.643 
		140.544,169.643 140.544,49.679 	"/>
	<path display="inline" stroke="#000000" stroke-miterlimit="10" d="M132.612,46.159c0,4.402,3.562,7.964,7.953,7.964
		c4.382,0,7.954-3.562,7.954-7.964c0-4.371-3.572-7.933-7.954-7.933C136.173,38.226,132.612,41.788,132.612,46.159z"/>
</g>
<g id="walking2">
	<path fill="#91A4E8" stroke="#000000" stroke-width="13" stroke-miterlimit="10" d="M267.625,682.826
		c-12.212-0.063-71.03-0.742-76.143-0.769c0,0-27.481,3.982-27.364-18.362l0.113-21.249l0.436-82.897
		c0.082-15.157,12.438-27.387,27.604-27.308l0,0c15.169,0.079,27.377,12.44,27.298,27.598l-0.461,87.503L267.625,682.826z"/>
	<path fill="#91A4E8" stroke="#000000" stroke-width="13" stroke-miterlimit="10" d="M361.583,246.683
		c0,64.498-88.336,93.612-152.824,93.612c-64.501,0-116.777-29.114-116.777-93.612c0-64.487,52.276-116.773,116.777-116.773
		C273.247,129.91,361.583,182.195,361.583,246.683z"/>
	<g id="XMLID_6_">
		<g>
			<path fill="#91A4E8" d="M267.625,425.133v61.49c0,42.18-11.12,85.369-47.101,85.369h-29.5c-35.97,0-65.15-43.189-65.15-85.369
				v-61.49c0-42.17,29.18-76.351,65.15-76.351h29.5C256.504,348.782,267.625,382.963,267.625,425.133z"/>
		</g>
		<g>
			<path fill="none" stroke="#000000" stroke-width="13" stroke-miterlimit="10" d="M267.625,486.623
				c0,42.18-11.12,85.369-47.101,85.369h-29.5c-35.97,0-65.15-43.189-65.15-85.369v-61.49c0-42.17,29.18-76.351,65.15-76.351h29.5
				c35.98,0,47.101,34.181,47.101,76.351V486.623z"/>
		</g>
	</g>
	<path fill="#91A4E8" stroke="#000000" stroke-width="13" stroke-miterlimit="10" d="M125.877,500.198
		c0,17.139-16.861,31.045-37.663,31.045l0,0c-20.812,0-37.683-13.906-37.683-31.045V371.348c0-17.147,16.871-31.053,37.683-31.053
		l0,0c20.802,0,37.663,13.905,37.663,31.053V500.198z"/>
	<path stroke="#000000" stroke-width="13" stroke-miterlimit="10" d="M356.965,243.296c0,50.603-25.061,49.833-73.539,50.942
		c-53.076,1.211-80.922,6.67-80.922-18.194c0-79.368-5.757-136.692,24.275-136.692C279.157,130.7,356.965,192.693,356.965,243.296z"
		/>
	<polyline fill="none" stroke="#000000" stroke-width="7" stroke-miterlimit="10" points="158.202,185.643 143.456,185.643 
		143.456,65.679 	"/>
	<path stroke="#000000" stroke-miterlimit="10" d="M135.523,62.159c0,4.402,3.562,7.964,7.953,7.964
		c4.382,0,7.954-3.562,7.954-7.964c0-4.371-3.572-7.933-7.954-7.933C139.084,54.226,135.523,57.788,135.523,62.159z"/>
	<path fill="#91A4E8" stroke="#000000" stroke-width="13" stroke-miterlimit="10" d="M158.533,650.442
		c-4.564-11.327-22.698-57.254-24.612-62.003c0,0-14.089-23.931,6.634-32.279l19.713-7.942l76.891-30.979
		c14.059-5.665,30.057,1.144,35.727,15.212l0,0c5.668,14.069-1.144,30.062-15.205,35.728l-81.163,32.699L158.533,650.442z"/>
	<polyline fill="none" stroke="#000000" stroke-width="7" stroke-miterlimit="10" points="158.202,185.643 143.456,185.643 
		143.456,65.679 	"/>
</g>
<g id="walking1" display="none">
	<path display="inline" fill="#91A4E8" stroke="#000000" stroke-width="13" stroke-miterlimit="10" d="M85.199,681.144
		c-6.472-10.355-32.35-52.41-35.064-56.752c0,0-18.052-21.102,0.894-32.941l18.022-11.264l70.298-43.934
		c12.854-8.033,29.796-4.123,37.834,8.738l0,0c8.039,12.863,4.125,29.801-8.73,37.834L94.25,629.198L85.199,681.144z"/>
	<path display="inline" fill="#91A4E8" stroke="#000000" stroke-width="13" stroke-miterlimit="10" d="M358.578,230.63
		c0,64.498-88.336,93.612-152.825,93.612c-64.501,0-116.777-29.114-116.777-93.612c0-64.487,52.276-116.772,116.777-116.772
		C270.242,113.858,358.578,166.143,358.578,230.63z"/>
	<g id="XMLID_4_" display="inline">
		<g>
			<path fill="#91A4E8" d="M264.619,409.081v61.49c0,42.18-11.12,85.369-47.1,85.369h-29.5c-35.97,0-65.15-43.189-65.15-85.369
				v-61.49c0-42.17,29.18-76.35,65.15-76.35h29.5C253.499,332.731,264.619,366.911,264.619,409.081z"/>
		</g>
		<g>
			<path fill="none" stroke="#000000" stroke-width="13" stroke-miterlimit="10" d="M264.619,470.571
				c0,42.18-11.12,85.369-47.1,85.369h-29.5c-35.97,0-65.15-43.189-65.15-85.369v-61.49c0-42.17,29.18-76.35,65.15-76.35h29.5
				c35.979,0,47.1,34.18,47.1,76.35V470.571z"/>
		</g>
	</g>
	<path display="inline" fill="#91A4E8" stroke="#000000" stroke-width="13" stroke-miterlimit="10" d="M122.872,484.146
		c0,17.139-16.861,31.045-37.663,31.045l0,0c-20.812,0-37.683-13.906-37.683-31.045v-128.85c0-17.148,16.871-31.053,37.683-31.053
		l0,0c20.802,0,37.663,13.905,37.663,31.053V484.146z"/>
	<path display="inline" stroke="#000000" stroke-width="13" stroke-miterlimit="10" d="M353.96,227.244
		c0,50.603-25.061,49.833-73.539,50.942c-53.076,1.211-80.922,6.67-80.922-18.195c0-79.367-5.757-136.691,24.276-136.691
		C276.152,114.647,353.96,176.641,353.96,227.244z"/>
	<polyline display="inline" fill="none" stroke="#000000" stroke-width="7" stroke-miterlimit="10" points="155.197,169.59 
		140.45,169.59 140.45,49.626 	"/>
	<path display="inline" stroke="#000000" stroke-miterlimit="10" d="M132.518,46.106c0,4.402,3.562,7.965,7.953,7.965
		c4.382,0,7.954-3.562,7.954-7.965c0-4.371-3.572-7.932-7.954-7.932C136.079,38.174,132.518,41.735,132.518,46.106z"/>
	<path display="inline" fill="#91A4E8" stroke="#000000" stroke-width="13" stroke-miterlimit="10" d="M375.933,629.093
		c-10.156,6.781-59.283,39.135-63.535,41.973c0,0-20.547,18.68-32.953,0.096l-11.799-17.674l-46.027-68.945
		c-8.416-12.607-5.018-29.658,7.596-38.08l0,0c12.615-8.422,29.65-5.01,38.066,7.596l48.586,72.777L375.933,629.093z"/>
</g>
</svg>
