<?xml version="1.0" encoding="utf-8"?>
<!-- Generator: Adobe Illustrator 16.0.0, SVG Export Plug-In . SVG Version: 6.00 Build 0)  -->
<!DOCTYPE svg PUBLIC "-//W3C//DTD SVG 1.1//EN" "http://www.w3.org/Graphics/SVG/1.1/DTD/svg11.dtd">
<svg version="1.1" xmlns="http://www.w3.org/2000/svg" xmlns:xlink="http://www.w3.org/1999/xlink" x="0px" y="0px"
	 width="418.492px" height="689.209px" viewBox="0 0 418.492 689.209" enable-background="new 0 0 418.492 689.209"
	 xml:space="preserve">
<g id="colors">
</g>
<g id="stand_1_" sodipodi:docname="player.svg" inkscape:version="0.92.4 (5da689c313, 2019-01-14)" xmlns:dc="http://purl.org/dc/elements/1.1/" xmlns:cc="http://creativecommons.org/ns#" xmlns:rdf="http://www.w3.org/1999/02/22-rdf-syntax-ns#" xmlns:svg="http://www.w3.org/2000/svg" xmlns:sodipodi="http://sodipodi.sourceforge.net/DTD/sodipodi-0.dtd" xmlns:inkscape="http://www.inkscape.org/namespaces/inkscape" display="none">
	<path display="inline" fill="#529E54" stroke="#000000" stroke-width="13" stroke-miterlimit="10" d="M364.771,200.394
		c0,64.498-88.335,93.612-152.823,93.612c-64.502,0-116.778-29.114-116.778-93.612c0-64.487,52.276-116.773,116.778-116.773
		C276.436,83.621,364.771,135.907,364.771,200.394z"/>
	<g id="XMLID_1_" display="inline">
		<g>
			<path fill="#529E54" d="M270.813,378.845v61.49c0,42.18-11.12,85.369-47.101,85.369h-29.5c-35.97,0-65.15-43.189-65.15-85.369
				v-61.49c0-42.17,29.18-76.35,65.15-76.35h29.5C259.693,302.495,270.813,336.674,270.813,378.845z"/>
		</g>
		<g>
			<path fill="none" stroke="#000000" stroke-width="13" stroke-miterlimit="10" d="M270.813,440.335
				c0,42.18-11.12,85.369-47.101,85.369h-29.5c-35.97,0-65.15-43.189-65.15-85.369v-61.49c0-42.17,29.18-76.35,65.15-76.35h29.5
				c35.98,0,47.101,34.18,47.101,76.35V440.335z"/>
		</g>
	</g>
	<path display="inline" fill="#529E54" stroke="#000000" stroke-width="13" stroke-miterlimit="10" d="M129.066,453.91
		c0,17.139-16.861,31.044-37.663,31.044l0,0c-20.812,0-37.683-13.905-37.683-31.044V325.059c0-17.148,16.871-31.053,37.683-31.053
		l0,0c20.802,0,37.663,13.905,37.663,31.053V453.91z"/>
	<path display="inline" stroke="#000000" stroke-width="13" stroke-miterlimit="10" d="M360.155,197.007
		c0,50.603-25.061,49.833-73.54,50.942c-53.075,1.211-80.921,6.67-80.921-18.194c0-79.368-5.757-136.692,24.275-136.692
		C282.346,84.411,360.155,146.405,360.155,197.007z"/>
	<path display="inline" fill="#529E54" stroke="#000000" stroke-width="13" stroke-miterlimit="10" d="M322.616,675.892
		c-12.213,0-71.035-0.369-76.146-0.369c0,0-27.462,4.126-27.462-18.216v-21.252v-82.897c0-15.158,12.294-27.453,27.462-27.453l0,0
		c15.168,0,27.441,12.295,27.441,27.453v87.504L322.616,675.892z"/>
	<path display="inline" fill="#529E54" stroke="#000000" stroke-width="13" stroke-miterlimit="10" d="M260.755,675.892
		c-12.213,0-71.02-0.369-76.141-0.369c0,0-27.461,4.126-27.461-18.216v-21.252v-82.897c0-15.158,12.293-27.453,27.461-27.453l0,0
		c15.167,0,27.457,12.295,27.457,27.453v87.504L260.755,675.892z"/>
	<polyline display="inline" fill="none" stroke="#000000" stroke-width="7" stroke-miterlimit="10" points="161.391,139.354 
		146.645,139.354 146.645,19.39 	"/>
	<path display="inline" stroke="#000000" stroke-miterlimit="10" d="M138.712,15.87c0,4.402,3.562,7.964,7.953,7.964
		c4.382,0,7.954-3.562,7.954-7.964c0-4.371-3.572-7.933-7.954-7.933C142.273,7.938,138.712,11.499,138.712,15.87z"/>
</g>
<g id="back" display="none">
	<g id="XMLID_7_" display="inline">
		<g>
			<path fill="#EC2024" d="M294.785,378.845v61.49c0,42.18-14.08,85.369-59.636,85.369h-37.352c-45.543,0-82.49-43.189-82.49-85.369
				v-61.49c0-42.17,36.946-76.35,82.49-76.35h37.352C280.705,302.495,294.785,336.674,294.785,378.845z"/>
		</g>
		<g>
			<path fill="none" stroke="#000000" stroke-width="13" stroke-miterlimit="10" d="M294.785,440.335
				c0,42.18-14.08,85.369-59.636,85.369h-37.352c-45.543,0-82.49-43.189-82.49-85.369v-61.49c0-42.17,36.946-76.35,82.49-76.35
				h37.352c45.556,0,59.636,34.18,59.636,76.35V440.335z"/>
		</g>
	</g>
	<path display="inline" fill="#EC2024" stroke="#000000" stroke-width="13" stroke-miterlimit="10" d="M174.642,675.522
		c-16.92,0-27.461-3.569-27.461-18.216v-21.252v-82.897c0-15.158,12.294-27.453,27.461-27.453l0,0
		c15.168,0,27.457,12.295,27.457,27.453c0,0,0,47.561,0,87.504C202.099,671.771,191.562,675.522,174.642,675.522z"/>
	<path display="inline" fill="#EC2024" stroke="#000000" stroke-width="13" stroke-miterlimit="10" d="M330.251,193.058
		c0,60.44-64.441,109.437-127.586,109.437c-63.146,0-122.414-48.997-122.414-109.437c0-60.44,59.268-109.437,122.414-109.437
		C265.81,83.621,330.251,132.618,330.251,193.058z"/>
	<g display="inline">
		<polyline fill="none" stroke="#000000" stroke-width="7" stroke-miterlimit="10" points="278.937,139.354 293.683,139.354 
			293.683,19.39 		"/>
		<path stroke="#000000" stroke-miterlimit="10" d="M301.617,15.87c0,4.402-3.562,7.964-7.953,7.964
			c-4.383,0-7.955-3.562-7.955-7.964c0-4.371,3.572-7.933,7.955-7.933C298.054,7.938,301.617,11.499,301.617,15.87z"/>
	</g>
	<path display="inline" fill="#EC2024" stroke="#000000" stroke-width="13" stroke-miterlimit="10" d="M279.957,453.91
		c0,17.139-33.527,31.044-74.891,31.044l0,0c-41.384,0-74.93-13.905-74.93-31.044V325.059c0-17.148,33.546-31.053,74.93-31.053l0,0
		c41.363,0,74.891,13.905,74.891,31.053V453.91z"/>
	<path display="inline" fill="#EC2024" stroke="#000000" stroke-width="13" stroke-miterlimit="10" d="M241.683,675.522
		c-16.92,0-27.46,4.126-27.46-18.216v-21.252v-82.897c0-15.158,12.294-27.453,27.46-27.453l0,0
		c15.168,0,27.457,12.295,27.457,27.453c0,0,0,47.561,0,87.504S258.603,675.522,241.683,675.522z"/>
</g>
<g id="climb1" display="none">
	<path display="inline" fill="#529E54" stroke="#000000" stroke-width="13" stroke-miterlimit="10" d="M167.789,607.393
		c-16.912-0.513-27.389-2.802-27.144-10.887l0.356-11.73l1.388-45.759c0.254-8.366,12.748-14.779,27.908-14.32l0,0
		c15.161,0.46,27.239,7.62,26.985,15.986c0,0-0.796,26.252-1.464,48.3C195.296,606.153,184.701,607.906,167.789,607.393z"/>
	<path display="inline" fill="#529E54" stroke="#000000" stroke-width="13" stroke-miterlimit="10" d="M241.683,675.522
		c-16.92,0-27.46,4.126-27.46-18.216v-21.252v-82.897c0-15.158,12.294-27.453,27.46-27.453l0,0
		c15.168,0,27.457,12.295,27.457,27.453c0,0,0,47.561,0,87.504S258.603,675.522,241.683,675.522z"/>
	<path display="inline" fill="#417241" stroke="#000000" stroke-width="13" stroke-miterlimit="10" d="M192.829,608.652
		c-0.201,6.623-10.931,11.674-15.279,11.541l-20.283-0.614c-4.347-0.133-14.753-5.824-14.553-12.447l1.258-41.48
		c0.201-6.625,5.267-11.846,11.314-11.663l28.213,0.855c6.048,0.184,10.788,5.703,10.587,12.327L192.829,608.652z"/>
	<g id="XMLID_2_" display="inline">
		<g>
			<path fill="#529E54" d="M299.999,381.546l-1.892,61.461c-1.298,42.16-16.7,84.896-62.234,83.494l-37.334-1.148
				c-45.522-1.401-81.122-45.708-79.824-87.868l1.892-61.461c1.297-42.15,39.278-75.177,84.8-73.775l37.334,1.149
				C288.275,304.799,301.296,339.396,299.999,381.546z"/>
		</g>
		<g>
			<path fill="none" stroke="#000000" stroke-width="13" stroke-miterlimit="10" d="M298.107,443.007
				c-1.298,42.16-16.7,84.896-62.234,83.494l-37.334-1.148c-45.522-1.401-81.122-45.708-79.824-87.868l1.892-61.461
				c1.297-42.15,39.278-75.177,84.8-73.775l37.334,1.149c45.534,1.402,58.556,35.999,57.258,78.149L298.107,443.007z"/>
		</g>
	</g>
	<path display="inline" fill="#529E54" stroke="#000000" stroke-width="13" stroke-miterlimit="10" d="M341.167,196.939
		c-1.86,60.412-67.778,107.402-130.894,105.459c-63.116-1.943-120.848-52.74-118.988-113.152
		c1.859-60.411,62.607-107.561,125.723-105.618C280.123,85.571,343.026,136.527,341.167,196.939z"/>
	<g display="inline">
		<polyline fill="none" stroke="#000000" stroke-width="7" stroke-miterlimit="10" points="291.529,141.682 306.267,142.136 
			309.958,22.229 		"/>
		<path stroke="#000000" stroke-miterlimit="10" d="M317.997,18.954c-0.135,4.4-3.806,7.851-8.194,7.715
			c-4.381-0.135-7.842-3.805-7.706-8.205c0.135-4.369,3.814-7.819,8.195-7.685C314.68,10.916,318.131,14.585,317.997,18.954z"/>
	</g>
	<path display="inline" fill="#529E54" stroke="#000000" stroke-width="13" stroke-miterlimit="10" d="M282.869,456.12
		c-0.527,17.131-34.467,29.998-75.811,28.725l0,0c-41.364-1.273-74.466-16.204-73.939-33.335l3.965-128.79
		c0.527-17.14,34.485-30.006,75.849-28.732l0,0c41.345,1.273,74.428,16.203,73.9,33.342L282.869,456.12z"/>
</g>
<g id="climb2">
	<path fill="#91A4E8" stroke="#000000" stroke-width="13" stroke-miterlimit="10" d="M264.66,607.393
		c16.912-0.513,27.389-2.802,27.143-10.887l-0.355-11.73l-1.388-45.759c-0.254-8.366-12.748-14.779-27.907-14.32l0,0
		c-15.162,0.46-27.239,7.62-26.985,15.986c0,0,0.796,26.252,1.464,48.3C237.152,606.153,247.748,607.906,264.66,607.393z"/>
	<path fill="#91A4E8" stroke="#000000" stroke-width="13" stroke-miterlimit="10" d="M190.765,675.522
		c16.92,0,27.46,4.126,27.46-18.216v-21.252v-82.897c0-15.158-12.294-27.453-27.46-27.453l0,0
		c-15.168,0-27.457,12.295-27.457,27.453c0,0,0,47.561,0,87.504S173.845,675.522,190.765,675.522z"/>
	<path fill="#6071A0" stroke="#000000" stroke-width="13" stroke-miterlimit="10" d="M239.619,608.652
		c0.201,6.623,10.932,11.674,15.279,11.541l20.283-0.614c4.348-0.133,14.754-5.824,14.553-12.447l-1.258-41.48
		c-0.201-6.625-5.268-11.846-11.314-11.663l-28.214,0.855c-6.048,0.184-10.788,5.703-10.587,12.327L239.619,608.652z"/>
	<g id="XMLID_8_">
		<g>
			<path fill="#91A4E8" d="M132.45,381.546l1.892,61.461c1.298,42.16,16.7,84.896,62.234,83.494l37.333-1.148
				c45.522-1.401,81.122-45.708,79.824-87.868l-1.892-61.461c-1.298-42.15-39.278-75.177-84.801-73.775l-37.333,1.149
				C144.173,304.799,131.152,339.396,132.45,381.546z"/>
		</g>
		<g>
			<path fill="none" stroke="#000000" stroke-width="13" stroke-miterlimit="10" d="M134.342,443.007
				c1.298,42.16,16.7,84.896,62.234,83.494l37.333-1.148c45.522-1.401,81.122-45.708,79.824-87.868l-1.892-61.461
				c-1.298-42.15-39.278-75.177-84.801-73.775l-37.333,1.149c-45.535,1.402-58.556,35.999-57.258,78.149L134.342,443.007z"/>
		</g>
	</g>
	<path fill="#91A4E8" stroke="#000000" stroke-width="13" stroke-miterlimit="10" d="M91.282,196.939
		c1.86,60.412,67.778,107.402,130.894,105.459c63.116-1.943,120.848-52.74,118.988-113.152
		c-1.859-60.411-62.607-107.561-125.723-105.618C152.326,85.571,89.422,136.527,91.282,196.939z"/>
	<g>
		<polyline fill="none" stroke="#000000" stroke-width="7" stroke-miterlimit="10" points="291.51,143.728 306.214,142.621 
			297.208,22.995 		"/>
		<path stroke="#000000" stroke-miterlimit="10" d="M304.855,18.89c0.331,4.39-2.955,8.209-7.333,8.538
			c-4.371,0.329-8.2-2.954-8.53-7.344c-0.328-4.359,2.966-8.179,7.337-8.508C300.707,11.247,304.527,14.531,304.855,18.89z"/>
	</g>
	<path fill="#91A4E8" stroke="#000000" stroke-width="13" stroke-miterlimit="10" d="M149.58,456.12
		c0.527,17.131,34.467,29.998,75.811,28.725l0,0c41.364-1.273,74.467-16.204,73.939-33.335l-3.965-128.79
		c-0.527-17.14-34.486-30.006-75.85-28.732l0,0c-41.345,1.273-74.428,16.203-73.9,33.342L149.58,456.12z"/>
</g>
<g id="walking4" display="none">
	<path display="inline" fill="#529E54" stroke="#000000" stroke-width="13" stroke-miterlimit="10" d="M158.533,650.442
		c-4.564-11.327-22.698-57.254-24.612-62.003c0,0-14.089-23.931,6.634-32.279l19.713-7.942l76.891-30.979
		c14.059-5.665,30.057,1.144,35.727,15.212l0,0c5.668,14.069-1.144,30.062-15.205,35.728l-81.163,32.699L158.533,650.442z"/>
	<path display="inline" fill="#529E54" stroke="#000000" stroke-width="13" stroke-miterlimit="10" d="M361.583,246.683
		c0,64.498-88.336,93.612-152.824,93.612c-64.501,0-116.777-29.114-116.777-93.612c0-64.487,52.276-116.773,116.777-116.773
		C273.247,129.91,361.583,182.195,361.583,246.683z"/>
	<g id="XMLID_5_" display="inline">
		<g>
			<path fill="#529E54" d="M267.625,425.133v61.49c0,42.18-11.12,85.369-47.101,85.369h-29.5c-35.97,0-65.15-43.189-65.15-85.369
				v-61.49c0-42.17,29.18-76.351,65.15-76.351h29.5C256.504,348.782,267.625,382.963,267.625,425.133z"/>
		</g>
		<g>
			<path fill="none" stroke="#000000" stroke-width="13" stroke-miterlimit="10" d="M267.625,486.623
				c0,42.18-11.12,85.369-47.101,85.369h-29.5c-35.97,0-65.15-43.189-65.15-85.369v-61.49c0-42.17,29.18-76.351,65.15-76.351h29.5
				c35.98,0,47.101,34.181,47.101,76.351V486.623z"/>
		</g>
	</g>
	<path display="inline" fill="#529E54" stroke="#000000" stroke-width="13" stroke-miterlimit="10" d="M125.877,500.198
		c0,17.139-16.861,31.045-37.663,31.045l0,0c-20.812,0-37.683-13.906-37.683-31.045V371.348c0-17.147,16.871-31.053,37.683-31.053
		l0,0c20.802,0,37.663,13.905,37.663,31.053V500.198z"/>
	<path display="inline" stroke="#000000" stroke-width="13" stroke-miterlimit="10" d="M356.965,243.296
		c0,50.603-25.061,49.833-73.539,50.942c-53.076,1.211-80.922,6.67-80.922-18.194c0-79.368-5.757-136.692,24.275-136.692
		C279.157,130.7,356.965,192.693,356.965,243.296z"/>
	<polyline display="inline" fill="none" stroke="#000000" stroke-width="7" stroke-miterlimit="10" points="158.202,185.643 
		143.456,185.643 143.456,65.679 	"/>
	<path display="inline" stroke="#000000" stroke-miterlimit="10" d="M135.523,62.159c0,4.402,3.562,7.964,7.953,7.964
		c4.382,0,7.954-3.562,7.954-7.964c0-4.371-3.572-7.933-7.954-7.933C139.084,54.226,135.523,57.788,135.523,62.159z"/>
	<polyline display="inline" fill="none" stroke="#000000" stroke-width="7" stroke-miterlimit="10" points="158.202,185.643 
		143.456,185.643 143.456,65.679 	"/>
	<path display="inline" fill="#529E54" stroke="#000000" stroke-width="13" stroke-miterlimit="10" d="M267.625,682.826
		c-12.212-0.063-71.03-0.742-76.143-0.769c0,0-27.481,3.982-27.364-18.362l0.113-21.249l0.436-82.897
		c0.082-15.157,12.438-27.387,27.604-27.308l0,0c15.169,0.079,27.377,12.44,27.298,27.598l-0.461,87.503L267.625,682.826z"/>
</g>
<g id="walking3" display="none">
	<path display="inline" fill="#529E54" stroke="#000000" stroke-width="13" stroke-miterlimit="10" d="M376.027,629.146
		c-10.156,6.781-59.283,39.135-63.535,41.973c0,0-20.547,18.68-32.953,0.096L267.74,653.54l-46.027-68.945
		c-8.416-12.607-5.018-29.658,7.596-38.08l0,0c12.615-8.422,29.65-5.01,38.066,7.596l48.586,72.777L376.027,629.146z"/>
	<path display="inline" fill="#529E54" stroke="#000000" stroke-width="13" stroke-miterlimit="10" d="M358.671,230.683
		c0,64.498-88.336,93.612-152.824,93.612c-64.502,0-116.778-29.114-116.778-93.612c0-64.487,52.276-116.773,116.778-116.773
		C270.335,113.91,358.671,166.195,358.671,230.683z"/>
	<g id="XMLID_3_" display="inline">
		<g>
			<path fill="#529E54" d="M264.713,409.133v61.49c0,42.18-11.12,85.369-47.101,85.369h-29.5c-35.97,0-65.15-43.189-65.15-85.369
				v-61.49c0-42.17,29.18-76.35,65.15-76.35h29.5C253.593,332.783,264.713,366.963,264.713,409.133z"/>
		</g>
		<g>
			<path fill="none" stroke="#000000" stroke-width="13" stroke-miterlimit="10" d="M264.713,470.623
				c0,42.18-11.12,85.369-47.101,85.369h-29.5c-35.97,0-65.15-43.189-65.15-85.369v-61.49c0-42.17,29.18-76.35,65.15-76.35h29.5
				c35.98,0,47.101,34.18,47.101,76.35V470.623z"/>
		</g>
	</g>
	<path display="inline" fill="#529E54" stroke="#000000" stroke-width="13" stroke-miterlimit="10" d="M122.966,484.198
		c0,17.139-16.861,31.045-37.663,31.045l0,0c-20.812,0-37.683-13.906-37.683-31.045V355.348c0-17.148,16.871-31.053,37.683-31.053
		l0,0c20.802,0,37.663,13.905,37.663,31.053V484.198z"/>
	<path display="inline" stroke="#000000" stroke-width="13" stroke-miterlimit="10" d="M354.054,227.296
		c0,50.603-25.061,49.833-73.539,50.942c-53.076,1.211-80.922,6.67-80.922-18.194c0-79.368-5.757-136.692,24.275-136.692
		C276.246,114.7,354.054,176.693,354.054,227.296z"/>
	<path display="inline" fill="#529E54" stroke="#000000" stroke-width="13" stroke-miterlimit="10" d="M85.293,681.195
		c-6.472-10.355-32.35-52.409-35.064-56.751c0,0-18.052-21.102,0.894-32.941l18.022-11.264l70.298-43.934
		c12.854-8.033,29.796-4.123,37.834,8.738l0,0c8.039,12.863,4.125,29.801-8.73,37.834l-74.204,46.373L85.293,681.195z"/>
	<polyline display="inline" fill="none" stroke="#000000" stroke-width="7" stroke-miterlimit="10" points="155.291,169.643 
		140.544,169.643 140.544,49.679 	"/>
	<path display="inline" stroke="#000000" stroke-miterlimit="10" d="M132.612,46.159c0,4.402,3.562,7.964,7.953,7.964
		c4.382,0,7.954-3.562,7.954-7.964c0-4.371-3.572-7.933-7.954-7.933C136.173,38.226,132.612,41.788,132.612,46.159z"/>
</g>
<g id="walking2" display="none">
	<path display="inline" fill="#529E54" stroke="#000000" stroke-width="13" stroke-miterlimit="10" d="M267.625,682.826
		c-12.212-0.063-71.03-0.742-76.143-0.769c0,0-27.481,3.982-27.364-18.362l0.113-21.249l0.436-82.897
		c0.082-15.157,12.438-27.387,27.604-27.308l0,0c15.169,0.079,27.377,12.44,27.298,27.598l-0.461,87.503L267.625,682.826z"/>
	<path display="inline" fill="#529E54" stroke="#000000" stroke-width="13" stroke-miterlimit="10" d="M361.583,246.683
		c0,64.498-88.336,93.612-152.824,93.612c-64.501,0-116.777-29.114-116.777-93.612c0-64.487,52.276-116.773,116.777-116.773
		C273.247,129.91,361.583,182.195,361.583,246.683z"/>
	<g id="XMLID_6_" display="inline">
		<g>
			<path fill="#529E54" d="M267.625,425.133v61.49c0,42.18-11.12,85.369-47.101,85.369h-29.5c-35.97,0-65.15-43.189-65.15-85.369
				v-61.49c0-42.17,29.18-76.351,65.15-76.351h29.5C256.504,348.782,267.625,382.963,267.625,425.133z"/>
		</g>
		<g>
			<path fill="none" stroke="#000000" stroke-width="13" stroke-miterlimit="10" d="M267.625,486.623
				c0,42.18-11.12,85.369-47.101,85.369h-29.5c-35.97,0-65.15-43.189-65.15-85.369v-61.49c0-42.17,29.18-76.351,65.15-76.351h29.5
				c35.98,0,47.101,34.181,47.101,76.351V486.623z"/>
		</g>
	</g>
	<path display="inline" fill="#529E54" stroke="#000000" stroke-width="13" stroke-miterlimit="10" d="M125.877,500.198
		c0,17.139-16.861,31.045-37.663,31.045l0,0c-20.812,0-37.683-13.906-37.683-31.045V371.348c0-17.147,16.871-31.053,37.683-31.053
		l0,0c20.802,0,37.663,13.905,37.663,31.053V500.198z"/>
	<path display="inline" stroke="#000000" stroke-width="13" stroke-miterlimit="10" d="M356.965,243.296
		c0,50.603-25.061,49.833-73.539,50.942c-53.076,1.211-80.922,6.67-80.922-18.194c0-79.368-5.757-136.692,24.275-136.692
		C279.157,130.7,356.965,192.693,356.965,243.296z"/>
	<polyline display="inline" fill="none" stroke="#000000" stroke-width="7" stroke-miterlimit="10" points="158.202,185.643 
		143.456,185.643 143.456,65.679 	"/>
	<path display="inline" stroke="#000000" stroke-miterlimit="10" d="M135.523,62.159c0,4.402,3.562,7.964,7.953,7.964
		c4.382,0,7.954-3.562,7.954-7.964c0-4.371-3.572-7.933-7.954-7.933C139.084,54.226,135.523,57.788,135.523,62.159z"/>
	<path display="inline" fill="#529E54" stroke="#000000" stroke-width="13" stroke-miterlimit="10" d="M158.533,650.442
		c-4.564-11.327-22.698-57.254-24.612-62.003c0,0-14.089-23.931,6.634-32.279l19.713-7.942l76.891-30.979
		c14.059-5.665,30.057,1.144,35.727,15.212l0,0c5.668,14.069-1.144,30.062-15.205,35.728l-81.163,32.699L158.533,650.442z"/>
	<polyline display="inline" fill="none" stroke="#000000" stroke-width="7" stroke-miterlimit="10" points="158.202,185.643 
		143.456,185.643 143.456,65.679 	"/>
</g>
<g id="walking1" display="none">
	<path display="inline" fill="#91A4E8" stroke="#000000" stroke-width="13" stroke-miterlimit="10" d="M85.199,681.144
		c-6.472-10.355-32.35-52.41-35.064-56.752c0,0-18.052-21.102,0.894-32.941l18.022-11.264l70.298-43.934
		c12.854-8.033,29.796-4.123,37.834,8.738l0,0c8.039,12.863,4.125,29.801-8.73,37.834L94.25,629.198L85.199,681.144z"/>
	<path display="inline" fill="#91A4E8" stroke="#000000" stroke-width="13" stroke-miterlimit="10" d="M358.578,230.63
		c0,64.498-88.336,93.612-152.825,93.612c-64.501,0-116.777-29.114-116.777-93.612c0-64.487,52.276-116.772,116.777-116.772
		C270.242,113.858,358.578,166.143,358.578,230.63z"/>
	<g id="XMLID_4_" display="inline">
		<g>
			<path fill="#91A4E8" d="M264.619,409.081v61.49c0,42.18-11.12,85.369-47.1,85.369h-29.5c-35.97,0-65.15-43.189-65.15-85.369
				v-61.49c0-42.17,29.18-76.35,65.15-76.35h29.5C253.499,332.731,264.619,366.911,264.619,409.081z"/>
		</g>
		<g>
			<path fill="none" stroke="#000000" stroke-width="13" stroke-miterlimit="10" d="M264.619,470.571
				c0,42.18-11.12,85.369-47.1,85.369h-29.5c-35.97,0-65.15-43.189-65.15-85.369v-61.49c0-42.17,29.18-76.35,65.15-76.35h29.5
				c35.979,0,47.1,34.18,47.1,76.35V470.571z"/>
		</g>
	</g>
	<path display="inline" fill="#91A4E8" stroke="#000000" stroke-width="13" stroke-miterlimit="10" d="M122.872,484.146
		c0,17.139-16.861,31.045-37.663,31.045l0,0c-20.812,0-37.683-13.906-37.683-31.045v-128.85c0-17.148,16.871-31.053,37.683-31.053
		l0,0c20.802,0,37.663,13.905,37.663,31.053V484.146z"/>
	<path display="inline" stroke="#000000" stroke-width="13" stroke-miterlimit="10" d="M353.96,227.244
		c0,50.603-25.061,49.833-73.539,50.942c-53.076,1.211-80.922,6.67-80.922-18.195c0-79.367-5.757-136.691,24.276-136.691
		C276.152,114.647,353.96,176.641,353.96,227.244z"/>
	<polyline display="inline" fill="none" stroke="#000000" stroke-width="7" stroke-miterlimit="10" points="155.197,169.59 
		140.45,169.59 140.45,49.626 	"/>
	<path display="inline" stroke="#000000" stroke-miterlimit="10" d="M132.518,46.106c0,4.402,3.562,7.965,7.953,7.965
		c4.382,0,7.954-3.562,7.954-7.965c0-4.371-3.572-7.932-7.954-7.932C136.079,38.174,132.518,41.735,132.518,46.106z"/>
	<path display="inline" fill="#91A4E8" stroke="#000000" stroke-width="13" stroke-miterlimit="10" d="M375.933,629.093
		c-10.156,6.781-59.283,39.135-63.535,41.973c0,0-20.547,18.68-32.953,0.096l-11.799-17.674l-46.027-68.945
		c-8.416-12.607-5.018-29.658,7.596-38.08l0,0c12.615-8.422,29.65-5.01,38.066,7.596l48.586,72.777L375.933,629.093z"/>
</g>
</svg>
