<?xml version="1.0" encoding="utf-8"?>
<!-- Generator: Adobe Illustrator 16.0.0, SVG Export Plug-In . SVG Version: 6.00 Build 0)  -->
<!DOCTYPE svg PUBLIC "-//W3C//DTD SVG 1.1//EN" "http://www.w3.org/Graphics/SVG/1.1/DTD/svg11.dtd">
<svg version="1.1"
	 id="svg8" sodipodi:docname="player.svg" inkscape:version="0.92.4 (5da689c313, 2019-01-14)" xmlns:dc="http://purl.org/dc/elements/1.1/" xmlns:cc="http://creativecommons.org/ns#" xmlns:rdf="http://www.w3.org/1999/02/22-rdf-syntax-ns#" xmlns:svg="http://www.w3.org/2000/svg" xmlns:sodipodi="http://sodipodi.sourceforge.net/DTD/sodipodi-0.dtd" xmlns:inkscape="http://www.inkscape.org/namespaces/inkscape"
	 xmlns="http://www.w3.org/2000/svg" xmlns:xlink="http://www.w3.org/1999/xlink" x="0px" y="0px" width="418.492px"
	 height="689.209px" viewBox="0 0 418.492 689.209" enable-background="new 0 0 418.492 689.209" xml:space="preserve">
<sodipodi:namedview  id="base" inkscape:pageopacity="0.0" fit-margin-left="5" fit-margin-top="5" showgrid="false" inkscape:cy="550.12862" inkscape:cx="278.9942" inkscape:zoom="1.6251477" borderopacity="1.0" bordercolor="#666666" pagecolor="#ffffff" inkscape:window-maximized="1" inkscape:window-y="-13" inkscape:pageshadow="2" inkscape:window-width="3200" inkscape:document-units="mm" inkscape:current-layer="layer1" inkscape:window-height="1675" fit-margin-right="5" fit-margin-bottom="5" inkscape:window-x="-13">
	</sodipodi:namedview>
<path fill="#FF0000" stroke="#000000" stroke-width="13" stroke-miterlimit="10" d="M367.104,200.394
	c0,64.498-88.335,93.612-152.823,93.612c-64.502,0-116.778-29.114-116.778-93.612c0-64.487,52.276-116.773,116.778-116.773
	C278.769,83.621,367.104,135.907,367.104,200.394z"/>
<g id="XMLID_1_">
	<g>
		<path fill="#FF0000" d="M273.146,378.845v61.49c0,42.18-11.12,85.369-47.101,85.369h-29.5c-35.97,0-65.15-43.189-65.15-85.369
			v-61.49c0-42.17,29.18-76.35,65.15-76.35h29.5C262.026,302.495,273.146,336.674,273.146,378.845z"/>
	</g>
	<g>
		<path fill="none" stroke="#000000" stroke-width="13" stroke-miterlimit="10" d="M273.146,440.335
			c0,42.18-11.12,85.369-47.101,85.369h-29.5c-35.97,0-65.15-43.189-65.15-85.369v-61.49c0-42.17,29.18-76.35,65.15-76.35h29.5
			c35.98,0,47.101,34.18,47.101,76.35V440.335z"/>
	</g>
</g>
<path fill="#FF0000" stroke="#000000" stroke-width="13" stroke-miterlimit="10" d="M131.399,453.91
	c0,17.139-16.861,31.044-37.663,31.044l0,0c-20.812,0-37.683-13.905-37.683-31.044V325.059c0-17.148,16.871-31.053,37.683-31.053
	l0,0c20.802,0,37.663,13.905,37.663,31.053V453.91z"/>
<path stroke="#000000" stroke-width="13" stroke-miterlimit="10" d="M362.488,197.007c0,50.603-25.061,49.833-73.54,50.942
	c-53.075,1.211-80.921,6.67-80.921-18.194c0-79.368-5.757-136.692,24.275-136.692C284.679,84.411,362.488,146.405,362.488,197.007z"
	/>
<path fill="#FF0000" stroke="#000000" stroke-width="13" stroke-miterlimit="10" d="M324.949,675.892
	c-12.213,0-71.035-0.369-76.146-0.369c0,0-27.462,4.126-27.462-18.216v-21.252v-82.897c0-15.158,12.294-27.453,27.462-27.453l0,0
	c15.168,0,27.441,12.295,27.441,27.453v87.504L324.949,675.892z"/>
<path fill="#FF0000" stroke="#000000" stroke-width="13" stroke-miterlimit="10" d="M263.088,675.892
	c-12.213,0-71.02-0.369-76.141-0.369c0,0-27.461,4.126-27.461-18.216v-21.252v-82.897c0-15.158,12.293-27.453,27.461-27.453l0,0
	c15.167,0,27.457,12.295,27.457,27.453v87.504L263.088,675.892z"/>
<polyline fill="none" stroke="#000000" stroke-width="7" stroke-miterlimit="10" points="163.724,139.354 148.978,139.354 
	148.978,19.39 "/>
<path stroke="#000000" stroke-miterlimit="10" d="M141.045,15.87c0,4.402,3.562,7.964,7.953,7.964c4.382,0,7.954-3.562,7.954-7.964
	c0-4.371-3.572-7.933-7.954-7.933C144.606,7.938,141.045,11.499,141.045,15.87z"/>
</svg>
