<?xml version="1.0" encoding="utf-8"?>
<!-- Generator: Adobe Illustrator 16.0.0, SVG Export Plug-In . SVG Version: 6.00 Build 0)  -->
<!DOCTYPE svg PUBLIC "-//W3C//DTD SVG 1.1//EN" "http://www.w3.org/Graphics/SVG/1.1/DTD/svg11.dtd">
<svg version="1.1" id="Layer_1" xmlns="http://www.w3.org/2000/svg" xmlns:xlink="http://www.w3.org/1999/xlink" x="0px" y="0px"
	 width="1000px" height="1600px" viewBox="0 0 1000 1600" enable-background="new 0 0 1000 1600" xml:space="preserve">
<path fill="#FFFFFF" stroke="#000000" stroke-width="2" stroke-miterlimit="10" d="M515.604,786.643
	c0,6.138-8.406,8.908-14.543,8.908c-6.138,0-11.112-2.771-11.112-8.908c0-6.137,4.975-11.112,11.112-11.112
	C507.198,775.53,515.604,780.506,515.604,786.643z"/>
<path fill="#FFFFFF" stroke="#000000" stroke-width="2" stroke-miterlimit="10" d="M506.663,809.476
	c0,4.014-1.058,8.124-4.481,8.124h-2.808c-3.423,0-6.199-4.11-6.199-8.124v-5.852c0-4.013,2.776-7.266,6.199-7.266h2.808
	c3.424,0,4.481,3.253,4.481,7.266V809.476z"/>
<path fill="#FFFFFF" stroke="#000000" stroke-width="2" stroke-miterlimit="10" d="M493.175,810.768
	c0,1.631-1.604,2.954-3.584,2.954l0,0c-1.98,0-3.586-1.323-3.586-2.954v-12.262c0-1.632,1.605-2.955,3.586-2.955l0,0
	c1.979,0,3.584,1.323,3.584,2.955V810.768z"/>
<path stroke="#000000" stroke-width="2" stroke-miterlimit="10" d="M515.165,786.32c0,4.815-2.384,4.742-6.997,4.848
	c-5.051,0.115-7.701,0.635-7.701-1.731c0-7.553-0.548-13.008,2.311-13.008C507.761,775.605,515.165,781.505,515.165,786.32z"/>
<path fill="#FFFFFF" stroke="#000000" stroke-width="2" stroke-miterlimit="10" d="M511.593,831.892
	c-1.162,0-6.759-0.035-7.246-0.035c0,0-2.613,0.393-2.613-1.733v-2.022v-7.889c0-1.442,1.17-2.612,2.613-2.612l0,0
	c1.443,0,2.612,1.17,2.612,2.612v8.327L511.593,831.892z"/>
<path fill="#FFFFFF" stroke="#000000" stroke-width="2" stroke-miterlimit="10" d="M505.707,831.892
	c-1.162,0-6.759-0.035-7.246-0.035c0,0-2.613,0.393-2.613-1.733v-2.022v-7.889c0-1.442,1.17-2.612,2.613-2.612l0,0
	c1.443,0,2.612,1.17,2.612,2.612v8.327L505.707,831.892z"/>
<line stroke="#ED1C24" stroke-miterlimit="10" x1="486.984" y1="799.954" x2="492.265" y2="799.954"/>
<line stroke="#ED1C24" stroke-miterlimit="10" x1="486.984" y1="801.423" x2="492.265" y2="801.423"/>
<polyline fill="none" stroke="#000000" stroke-miterlimit="10" points="496.251,780.834 494.848,780.834 494.848,769.418 "/>
<circle cx="494.85" cy="769.083" r="0.757"/>
</svg>
