<?xml version="1.0" encoding="utf-8"?>
<!-- Generator: Adobe Illustrator 16.0.0, SVG Export Plug-In . SVG Version: 6.00 Build 0)  -->
<!DOCTYPE svg PUBLIC "-//W3C//DTD SVG 1.1//EN" "http://www.w3.org/Graphics/SVG/1.1/DTD/svg11.dtd">
<svg version="1.1" xmlns="http://www.w3.org/2000/svg" xmlns:xlink="http://www.w3.org/1999/xlink" x="0px" y="0px" width="1000px"
	 height="1600px" viewBox="0 0 1000 1600" enable-background="new 0 0 1000 1600" xml:space="preserve">
<g id="Layer_2">
	<rect x="-0.667" y="-2" fill="#120F22" stroke="#000000" stroke-width="4" stroke-miterlimit="10" width="1000" height="1600"/>
</g>
<g id="Layer_1">
	<g>
		<polygon fill="#FFFFFF" points="876.139,687.439 881.938,683.033 880.24,688.834 881.938,694.634 876.139,690.229 
			870.338,694.634 872.037,688.834 870.338,683.033 		"/>
		<g>
			<path fill="#FFFFFF" d="M876.139,676.914c0,0,0.217,0.42,0.494,1.155c0.287,0.735,0.639,1.785,0.947,3.046
				c0.312,1.26,0.586,2.73,0.769,4.306c0.094,0.788,0.169,1.602,0.211,2.429c0.056,0.827,0.063,1.668,0.077,2.508
				c-0.013,0.84-0.018,1.681-0.073,2.508c-0.036,0.827-0.118,1.641-0.208,2.429c-0.182,1.575-0.455,3.046-0.768,4.306
				c-0.311,1.261-0.662,2.311-0.952,3.046c-0.279,0.735-0.497,1.155-0.497,1.155s-0.219-0.42-0.498-1.155
				c-0.289-0.735-0.642-1.785-0.951-3.046c-0.313-1.26-0.586-2.73-0.769-4.306c-0.089-0.788-0.171-1.602-0.208-2.429
				c-0.057-0.827-0.061-1.668-0.074-2.508c0.014-0.84,0.021-1.681,0.078-2.508c0.042-0.827,0.117-1.641,0.211-2.429
				c0.184-1.575,0.457-3.046,0.769-4.306c0.309-1.261,0.659-2.311,0.947-3.046C875.922,677.334,876.139,676.914,876.139,676.914z"/>
		</g>
		<g>
			<path fill="#FFFFFF" d="M862.695,688.881c0,0,0.42-0.217,1.154-0.494c0.736-0.288,1.786-0.64,3.047-0.948
				c1.26-0.312,2.73-0.585,4.306-0.769c0.788-0.094,1.602-0.169,2.429-0.211c0.827-0.056,1.667-0.063,2.508-0.077
				c0.84,0.014,1.68,0.018,2.507,0.074c0.827,0.036,1.642,0.118,2.429,0.208c1.576,0.182,3.046,0.455,4.307,0.768
				c1.26,0.311,2.311,0.662,3.045,0.952c0.736,0.278,1.156,0.497,1.156,0.497s-0.42,0.219-1.156,0.497
				c-0.734,0.29-1.785,0.642-3.045,0.952c-1.261,0.312-2.73,0.586-4.307,0.768c-0.787,0.09-1.602,0.172-2.429,0.208
				c-0.827,0.057-1.667,0.061-2.507,0.074c-0.841-0.014-1.681-0.021-2.508-0.077c-0.827-0.042-1.641-0.117-2.429-0.211
				c-1.575-0.184-3.046-0.457-4.306-0.769c-1.261-0.309-2.311-0.66-3.047-0.948C863.115,689.098,862.695,688.881,862.695,688.881z"
				/>
		</g>
	</g>
	<g>
		<polygon fill="#FFFFFF" points="176.059,954.082 181.859,949.676 180.161,955.477 181.859,961.276 176.059,956.871 
			170.258,961.276 171.958,955.477 170.258,949.676 		"/>
		<g>
			<path fill="#FFFFFF" d="M176.059,943.557c0,0,0.217,0.42,0.494,1.155c0.287,0.735,0.639,1.785,0.947,3.046
				c0.312,1.26,0.586,2.73,0.769,4.306c0.094,0.788,0.169,1.602,0.211,2.429c0.056,0.827,0.063,1.668,0.077,2.508
				c-0.013,0.84-0.018,1.681-0.073,2.508c-0.036,0.827-0.118,1.641-0.208,2.429c-0.182,1.575-0.455,3.046-0.768,4.306
				c-0.311,1.261-0.662,2.311-0.952,3.046c-0.279,0.735-0.497,1.155-0.497,1.155s-0.219-0.42-0.498-1.155
				c-0.289-0.735-0.642-1.785-0.951-3.046c-0.313-1.26-0.586-2.73-0.769-4.306c-0.089-0.788-0.171-1.602-0.208-2.429
				c-0.057-0.827-0.061-1.668-0.074-2.508c0.014-0.84,0.021-1.681,0.078-2.508c0.042-0.827,0.117-1.641,0.211-2.429
				c0.184-1.575,0.457-3.046,0.769-4.306c0.309-1.261,0.659-2.311,0.947-3.046C175.842,943.977,176.059,943.557,176.059,943.557z"/>
		</g>
		<g>
			<path fill="#FFFFFF" d="M162.616,955.523c0,0,0.42-0.217,1.154-0.494c0.736-0.288,1.786-0.64,3.047-0.948
				c1.26-0.312,2.73-0.585,4.306-0.769c0.788-0.094,1.602-0.169,2.429-0.211c0.827-0.056,1.667-0.063,2.508-0.077
				c0.84,0.014,1.68,0.018,2.507,0.074c0.827,0.036,1.642,0.118,2.429,0.208c1.576,0.182,3.046,0.455,4.307,0.768
				c1.26,0.311,2.311,0.662,3.045,0.952c0.736,0.278,1.156,0.497,1.156,0.497s-0.42,0.219-1.156,0.497
				c-0.734,0.29-1.785,0.642-3.045,0.952c-1.261,0.312-2.73,0.586-4.307,0.768c-0.787,0.09-1.602,0.172-2.429,0.208
				c-0.827,0.057-1.667,0.061-2.507,0.074c-0.841-0.014-1.681-0.021-2.508-0.077c-0.827-0.042-1.641-0.117-2.429-0.211
				c-1.575-0.184-3.046-0.457-4.306-0.769c-1.261-0.309-2.311-0.66-3.047-0.948C163.036,955.74,162.616,955.523,162.616,955.523z"/>
		</g>
	</g>
	<g>
		<polygon fill="#FFFFFF" points="831.501,118.211 837.302,113.805 835.603,119.605 837.302,125.405 831.501,121 825.7,125.405 
			827.399,119.605 825.7,113.805 		"/>
		<g>
			<path fill="#FFFFFF" d="M831.501,107.686c0,0,0.217,0.42,0.494,1.155c0.287,0.735,0.639,1.785,0.947,3.046
				c0.312,1.26,0.586,2.73,0.77,4.306c0.094,0.788,0.168,1.602,0.211,2.429c0.055,0.827,0.062,1.668,0.076,2.508
				c-0.012,0.84-0.018,1.681-0.072,2.508c-0.037,0.827-0.119,1.641-0.209,2.429c-0.182,1.575-0.455,3.046-0.768,4.306
				c-0.311,1.261-0.662,2.311-0.951,3.046c-0.279,0.735-0.498,1.155-0.498,1.155s-0.219-0.42-0.498-1.155
				c-0.289-0.735-0.641-1.785-0.951-3.046c-0.312-1.26-0.586-2.73-0.768-4.306c-0.09-0.788-0.172-1.602-0.209-2.429
				c-0.057-0.827-0.061-1.668-0.074-2.508c0.014-0.84,0.021-1.681,0.078-2.508c0.043-0.827,0.117-1.641,0.211-2.429
				c0.184-1.575,0.457-3.046,0.77-4.306c0.309-1.261,0.658-2.311,0.947-3.046C831.284,108.105,831.501,107.686,831.501,107.686z"/>
		</g>
		<g>
			<path fill="#FFFFFF" d="M818.058,119.652c0,0,0.42-0.217,1.154-0.494c0.736-0.288,1.787-0.64,3.047-0.948
				c1.26-0.312,2.73-0.585,4.307-0.769c0.787-0.094,1.602-0.169,2.428-0.211c0.828-0.056,1.668-0.063,2.508-0.077
				c0.84,0.014,1.68,0.018,2.508,0.074c0.826,0.036,1.641,0.118,2.428,0.208c1.576,0.182,3.047,0.455,4.307,0.768
				c1.26,0.311,2.311,0.662,3.045,0.952c0.736,0.278,1.156,0.497,1.156,0.497s-0.42,0.219-1.156,0.497
				c-0.734,0.29-1.785,0.642-3.045,0.952c-1.26,0.312-2.73,0.586-4.307,0.768c-0.787,0.09-1.602,0.172-2.428,0.208
				c-0.828,0.057-1.668,0.061-2.508,0.074c-0.84-0.014-1.68-0.021-2.508-0.077c-0.826-0.042-1.641-0.117-2.428-0.211
				c-1.576-0.184-3.047-0.457-4.307-0.769c-1.26-0.309-2.311-0.66-3.047-0.948C818.478,119.869,818.058,119.652,818.058,119.652z"/>
		</g>
	</g>
	<g>
		<polygon fill="#FFFFFF" points="939.294,361.973 945.095,357.567 943.396,363.368 945.095,369.167 939.294,364.762 
			933.493,369.167 935.192,363.368 933.493,357.567 		"/>
		<g>
			<path fill="#FFFFFF" d="M939.294,351.448c0,0,0.217,0.42,0.494,1.155c0.287,0.735,0.639,1.785,0.947,3.046
				c0.312,1.26,0.586,2.73,0.77,4.306c0.094,0.788,0.168,1.602,0.211,2.429c0.055,0.827,0.062,1.668,0.076,2.508
				c-0.012,0.84-0.018,1.681-0.072,2.508c-0.037,0.827-0.119,1.641-0.209,2.429c-0.182,1.575-0.455,3.046-0.768,4.306
				c-0.311,1.261-0.662,2.311-0.951,3.046c-0.279,0.735-0.498,1.155-0.498,1.155s-0.219-0.42-0.498-1.155
				c-0.289-0.735-0.641-1.785-0.951-3.046c-0.312-1.26-0.586-2.73-0.768-4.306c-0.09-0.788-0.172-1.602-0.209-2.429
				c-0.057-0.827-0.061-1.668-0.074-2.508c0.014-0.84,0.021-1.681,0.078-2.508c0.043-0.827,0.117-1.641,0.211-2.429
				c0.184-1.575,0.457-3.046,0.77-4.306c0.309-1.261,0.658-2.311,0.947-3.046C939.077,351.868,939.294,351.448,939.294,351.448z"/>
		</g>
		<g>
			<path fill="#FFFFFF" d="M925.851,363.415c0,0,0.42-0.217,1.154-0.494c0.736-0.288,1.787-0.64,3.047-0.948
				c1.26-0.312,2.73-0.585,4.307-0.769c0.787-0.094,1.602-0.169,2.428-0.211c0.828-0.056,1.668-0.063,2.508-0.077
				c0.84,0.014,1.68,0.018,2.508,0.074c0.826,0.036,1.641,0.118,2.428,0.208c1.576,0.182,3.047,0.455,4.307,0.768
				c1.26,0.311,2.311,0.662,3.045,0.952c0.736,0.278,1.156,0.497,1.156,0.497s-0.42,0.219-1.156,0.497
				c-0.734,0.29-1.785,0.642-3.045,0.952c-1.26,0.312-2.73,0.586-4.307,0.768c-0.787,0.09-1.602,0.172-2.428,0.208
				c-0.828,0.057-1.668,0.061-2.508,0.074c-0.84-0.014-1.68-0.021-2.508-0.077c-0.826-0.042-1.641-0.117-2.428-0.211
				c-1.576-0.184-3.047-0.457-4.307-0.769c-1.26-0.309-2.311-0.66-3.047-0.948C926.271,363.631,925.851,363.415,925.851,363.415z"/>
		</g>
	</g>
	<g>
		<polygon fill="#FFFFFF" points="1.353,1336.564 7.153,1332.158 5.454,1337.959 7.153,1343.759 1.353,1339.354 -4.448,1343.759 
			-2.749,1337.959 -4.448,1332.158 		"/>
		<g>
			<path fill="#FFFFFF" d="M1.353,1326.039c0,0,0.217,0.42,0.494,1.155c0.287,0.735,0.639,1.785,0.947,3.046
				c0.312,1.26,0.586,2.73,0.77,4.306c0.094,0.788,0.168,1.602,0.211,2.429c0.055,0.827,0.062,1.668,0.076,2.508
				c-0.012,0.84-0.018,1.681-0.072,2.508c-0.037,0.827-0.119,1.641-0.209,2.429c-0.182,1.575-0.455,3.046-0.768,4.306
				c-0.311,1.261-0.662,2.311-0.951,3.046c-0.279,0.735-0.498,1.155-0.498,1.155s-0.219-0.42-0.498-1.155
				c-0.289-0.735-0.641-1.785-0.951-3.046c-0.312-1.26-0.586-2.73-0.768-4.306c-0.09-0.788-0.172-1.602-0.209-2.429
				c-0.057-0.827-0.061-1.668-0.074-2.508c0.014-0.84,0.021-1.681,0.078-2.508c0.043-0.827,0.117-1.641,0.211-2.429
				c0.184-1.575,0.457-3.046,0.77-4.306c0.309-1.261,0.658-2.311,0.947-3.046C1.136,1326.459,1.353,1326.039,1.353,1326.039z"/>
		</g>
		<g>
			<path fill="#FFFFFF" d="M-12.091,1338.006c0,0,0.42-0.217,1.154-0.494c0.736-0.288,1.787-0.64,3.047-0.948
				c1.26-0.312,2.73-0.585,4.307-0.769c0.787-0.094,1.602-0.169,2.428-0.211c0.828-0.056,1.668-0.063,2.508-0.077
				c0.84,0.014,1.68,0.018,2.508,0.074c0.826,0.036,1.641,0.118,2.428,0.208c1.576,0.182,3.047,0.455,4.307,0.768
				c1.26,0.311,2.311,0.662,3.045,0.952c0.736,0.278,1.156,0.497,1.156,0.497s-0.42,0.219-1.156,0.497
				c-0.734,0.29-1.785,0.642-3.045,0.952c-1.26,0.312-2.73,0.586-4.307,0.768c-0.787,0.09-1.602,0.172-2.428,0.208
				c-0.828,0.057-1.668,0.061-2.508,0.074c-0.84-0.014-1.68-0.021-2.508-0.077c-0.826-0.042-1.641-0.117-2.428-0.211
				c-1.576-0.184-3.047-0.457-4.307-0.769c-1.26-0.309-2.311-0.66-3.047-0.948C-11.671,1338.223-12.091,1338.006-12.091,1338.006z"
				/>
		</g>
	</g>
	<g>
		<polygon fill="#FFFFFF" points="676.596,1478.211 682.396,1473.805 680.697,1479.605 682.396,1485.405 676.596,1481 
			670.795,1485.405 672.494,1479.605 670.795,1473.805 		"/>
		<g>
			<path fill="#FFFFFF" d="M676.596,1467.686c0,0,0.217,0.42,0.494,1.155c0.287,0.735,0.639,1.785,0.947,3.046
				c0.312,1.26,0.586,2.73,0.77,4.306c0.094,0.788,0.168,1.602,0.211,2.429c0.055,0.827,0.062,1.668,0.076,2.508
				c-0.012,0.84-0.018,1.681-0.072,2.508c-0.037,0.827-0.119,1.641-0.209,2.429c-0.182,1.575-0.455,3.046-0.768,4.306
				c-0.311,1.261-0.662,2.311-0.951,3.046c-0.279,0.735-0.498,1.155-0.498,1.155s-0.219-0.42-0.498-1.155
				c-0.289-0.735-0.641-1.785-0.951-3.046c-0.312-1.26-0.586-2.73-0.768-4.306c-0.09-0.788-0.172-1.602-0.209-2.429
				c-0.057-0.827-0.061-1.668-0.074-2.508c0.014-0.84,0.021-1.681,0.078-2.508c0.043-0.827,0.117-1.641,0.211-2.429
				c0.184-1.575,0.457-3.046,0.77-4.306c0.309-1.261,0.658-2.311,0.947-3.046C676.379,1468.105,676.596,1467.686,676.596,1467.686z"
				/>
		</g>
		<g>
			<path fill="#FFFFFF" d="M663.152,1479.652c0,0,0.42-0.217,1.154-0.494c0.736-0.288,1.787-0.64,3.047-0.948
				c1.26-0.312,2.73-0.585,4.307-0.769c0.787-0.094,1.602-0.169,2.428-0.211c0.828-0.056,1.668-0.063,2.508-0.077
				c0.84,0.014,1.68,0.018,2.508,0.074c0.826,0.036,1.641,0.118,2.428,0.208c1.576,0.182,3.047,0.455,4.307,0.768
				c1.26,0.311,2.311,0.662,3.045,0.952c0.736,0.278,1.156,0.497,1.156,0.497s-0.42,0.219-1.156,0.497
				c-0.734,0.29-1.785,0.642-3.045,0.952c-1.26,0.312-2.73,0.586-4.307,0.768c-0.787,0.09-1.602,0.172-2.428,0.208
				c-0.828,0.057-1.668,0.061-2.508,0.074c-0.84-0.014-1.68-0.021-2.508-0.077c-0.826-0.042-1.641-0.117-2.428-0.211
				c-1.576-0.184-3.047-0.457-4.307-0.769c-1.26-0.309-2.311-0.66-3.047-0.948C663.572,1479.869,663.152,1479.652,663.152,1479.652z
				"/>
		</g>
	</g>
	<g>
		<polygon fill="#FFFFFF" points="74.417,44.237 80.218,39.831 78.519,45.631 80.218,51.431 74.417,47.026 68.617,51.431 
			70.316,45.631 68.617,39.831 		"/>
		<g>
			<path fill="#FFFFFF" d="M74.417,33.711c0,0,0.217,0.42,0.494,1.155c0.287,0.735,0.639,1.785,0.947,3.046
				c0.312,1.26,0.586,2.73,0.77,4.306c0.094,0.788,0.168,1.602,0.211,2.429c0.055,0.827,0.062,1.668,0.076,2.508
				c-0.012,0.84-0.018,1.681-0.072,2.508c-0.037,0.827-0.119,1.641-0.209,2.429c-0.182,1.575-0.455,3.046-0.768,4.306
				c-0.311,1.261-0.662,2.311-0.951,3.046c-0.279,0.735-0.498,1.155-0.498,1.155s-0.219-0.42-0.498-1.155
				c-0.289-0.735-0.641-1.785-0.951-3.046c-0.312-1.26-0.586-2.73-0.768-4.306c-0.09-0.788-0.172-1.602-0.209-2.429
				c-0.057-0.827-0.061-1.668-0.074-2.508c0.014-0.84,0.021-1.681,0.078-2.508c0.043-0.827,0.117-1.641,0.211-2.429
				c0.184-1.575,0.457-3.046,0.77-4.306c0.309-1.261,0.658-2.311,0.947-3.046C74.201,34.131,74.417,33.711,74.417,33.711z"/>
		</g>
		<g>
			<path fill="#FFFFFF" d="M60.974,45.678c0,0,0.42-0.217,1.154-0.494c0.736-0.288,1.787-0.64,3.047-0.948
				c1.26-0.312,2.73-0.585,4.307-0.769c0.787-0.094,1.602-0.169,2.428-0.211c0.828-0.056,1.668-0.063,2.508-0.077
				c0.84,0.014,1.68,0.018,2.508,0.074c0.826,0.036,1.641,0.118,2.428,0.208c1.576,0.182,3.047,0.455,4.307,0.768
				c1.26,0.311,2.311,0.662,3.045,0.952c0.736,0.278,1.156,0.497,1.156,0.497s-0.42,0.219-1.156,0.497
				c-0.734,0.29-1.785,0.642-3.045,0.952c-1.26,0.312-2.73,0.586-4.307,0.768c-0.787,0.09-1.602,0.172-2.428,0.208
				c-0.828,0.057-1.668,0.061-2.508,0.074c-0.84-0.014-1.68-0.021-2.508-0.077c-0.826-0.042-1.641-0.117-2.428-0.211
				c-1.576-0.184-3.047-0.457-4.307-0.769c-1.26-0.309-2.311-0.66-3.047-0.948C61.394,45.895,60.974,45.678,60.974,45.678z"/>
		</g>
	</g>
	<g>
		<polygon fill="#FFFFFF" points="921.369,870.139 923.303,868.669 922.736,870.603 923.303,872.537 921.369,871.068 
			919.435,872.537 920.001,870.603 919.435,868.669 		"/>
		<g>
			<path fill="#FFFFFF" d="M921.369,866.629c0,0,0.047,0.035,0.135,0.101c0.08,0.065,0.235,0.162,0.359,0.284
				c0.285,0.245,0.628,0.596,0.948,1.016c0.631,0.841,1.064,1.961,1.058,3.082c0.014,1.12-0.418,2.24-1.051,3.081
				c-0.321,0.42-0.666,0.771-0.952,1.016c-0.125,0.122-0.28,0.219-0.361,0.284c-0.089,0.065-0.136,0.101-0.136,0.101
				s-0.047-0.035-0.136-0.101c-0.081-0.065-0.236-0.162-0.361-0.284c-0.286-0.245-0.631-0.596-0.952-1.016
				c-0.633-0.841-1.064-1.961-1.051-3.081c-0.007-1.121,0.427-2.241,1.058-3.082c0.32-0.42,0.663-0.771,0.948-1.016
				c0.124-0.122,0.279-0.219,0.359-0.284C921.322,866.664,921.369,866.629,921.369,866.629z"/>
		</g>
		<g>
			<path fill="#FFFFFF" d="M916.887,870.619c0,0,0.035-0.047,0.101-0.135c0.065-0.08,0.162-0.235,0.284-0.359
				c0.245-0.285,0.596-0.628,1.016-0.948c0.841-0.631,1.961-1.064,3.082-1.058c1.12-0.014,2.24,0.418,3.081,1.051
				c0.42,0.321,0.771,0.666,1.016,0.952c0.122,0.125,0.219,0.28,0.284,0.361c0.065,0.089,0.101,0.136,0.101,0.136
				s-0.035,0.047-0.101,0.136c-0.065,0.081-0.162,0.236-0.284,0.361c-0.245,0.286-0.596,0.631-1.016,0.952
				c-0.841,0.633-1.961,1.064-3.081,1.051c-1.121,0.007-2.241-0.427-3.082-1.058c-0.42-0.32-0.771-0.663-1.016-0.948
				c-0.122-0.124-0.219-0.279-0.284-0.359C916.922,870.666,916.887,870.619,916.887,870.619z"/>
		</g>
	</g>
	<g>
		<polygon fill="#FFFFFF" points="800.457,670.253 802.391,668.784 801.824,670.717 802.391,672.652 800.457,671.183 
			798.522,672.652 799.089,670.717 798.522,668.784 		"/>
		<g>
			<path fill="#FFFFFF" d="M800.457,666.744c0,0,0.047,0.035,0.135,0.101c0.08,0.065,0.235,0.162,0.359,0.284
				c0.285,0.245,0.628,0.596,0.948,1.016c0.631,0.841,1.064,1.961,1.058,3.082c0.014,1.12-0.418,2.24-1.051,3.081
				c-0.321,0.42-0.666,0.771-0.952,1.016c-0.125,0.122-0.28,0.219-0.361,0.284c-0.089,0.065-0.136,0.101-0.136,0.101
				s-0.047-0.035-0.136-0.101c-0.081-0.065-0.236-0.162-0.361-0.284c-0.286-0.245-0.631-0.596-0.952-1.016
				c-0.633-0.841-1.064-1.961-1.051-3.081c-0.007-1.121,0.427-2.241,1.058-3.082c0.32-0.42,0.663-0.771,0.948-1.016
				c0.124-0.122,0.279-0.219,0.359-0.284C800.41,666.779,800.457,666.744,800.457,666.744z"/>
		</g>
		<g>
			<path fill="#FFFFFF" d="M795.975,670.734c0,0,0.035-0.047,0.101-0.135c0.065-0.08,0.162-0.235,0.284-0.359
				c0.245-0.285,0.596-0.628,1.016-0.948c0.841-0.631,1.961-1.064,3.082-1.058c1.12-0.014,2.24,0.418,3.081,1.051
				c0.42,0.321,0.771,0.666,1.016,0.952c0.122,0.125,0.219,0.28,0.284,0.361c0.065,0.089,0.101,0.136,0.101,0.136
				s-0.035,0.047-0.101,0.136c-0.065,0.081-0.162,0.236-0.284,0.361c-0.245,0.286-0.596,0.631-1.016,0.952
				c-0.841,0.633-1.961,1.064-3.081,1.051c-1.121,0.007-2.241-0.427-3.082-1.058c-0.42-0.32-0.771-0.663-1.016-0.948
				c-0.122-0.124-0.219-0.279-0.284-0.359C796.01,670.781,795.975,670.734,795.975,670.734z"/>
		</g>
	</g>
	<g>
		<polygon fill="#FFFFFF" points="633.277,89.897 635.211,88.428 634.645,90.361 635.211,92.296 633.277,90.827 631.343,92.296 
			631.909,90.361 631.343,88.428 		"/>
		<g>
			<path fill="#FFFFFF" d="M633.277,86.388c0,0,0.047,0.035,0.135,0.101c0.08,0.065,0.235,0.162,0.359,0.284
				c0.285,0.245,0.628,0.596,0.948,1.016c0.631,0.841,1.064,1.961,1.058,3.082c0.014,1.12-0.418,2.24-1.051,3.081
				c-0.321,0.42-0.666,0.771-0.952,1.016c-0.125,0.122-0.28,0.219-0.361,0.284c-0.089,0.065-0.136,0.101-0.136,0.101
				s-0.047-0.035-0.136-0.101c-0.081-0.065-0.236-0.162-0.361-0.284c-0.286-0.245-0.631-0.596-0.952-1.016
				c-0.633-0.841-1.064-1.961-1.051-3.081c-0.007-1.121,0.427-2.241,1.058-3.082c0.32-0.42,0.663-0.771,0.948-1.016
				c0.124-0.122,0.279-0.219,0.359-0.284C633.23,86.423,633.277,86.388,633.277,86.388z"/>
		</g>
		<g>
			<path fill="#FFFFFF" d="M628.795,90.378c0,0,0.035-0.047,0.101-0.135c0.065-0.08,0.162-0.235,0.284-0.359
				c0.245-0.285,0.596-0.628,1.016-0.948c0.841-0.631,1.961-1.064,3.082-1.058c1.12-0.014,2.24,0.418,3.081,1.051
				c0.42,0.321,0.771,0.666,1.016,0.952c0.122,0.125,0.219,0.28,0.284,0.361c0.065,0.089,0.101,0.136,0.101,0.136
				s-0.035,0.047-0.101,0.136c-0.065,0.081-0.162,0.236-0.284,0.361c-0.245,0.286-0.596,0.631-1.016,0.952
				c-0.841,0.633-1.961,1.064-3.081,1.051c-1.121,0.007-2.241-0.427-3.082-1.058c-0.42-0.32-0.771-0.663-1.016-0.948
				c-0.122-0.124-0.219-0.279-0.284-0.359C628.83,90.425,628.795,90.378,628.795,90.378z"/>
		</g>
	</g>
	<g>
		<polygon fill="#FFFFFF" points="313.148,91.324 315.082,89.854 314.516,91.788 315.082,93.722 313.148,92.253 311.214,93.722 
			311.78,91.788 311.214,89.854 		"/>
		<g>
			<path fill="#FFFFFF" d="M313.148,87.814c0,0,0.047,0.035,0.135,0.101c0.08,0.065,0.235,0.162,0.359,0.284
				c0.285,0.245,0.628,0.596,0.948,1.016c0.631,0.841,1.064,1.961,1.058,3.082c0.014,1.12-0.418,2.24-1.051,3.081
				c-0.321,0.42-0.666,0.771-0.952,1.016c-0.125,0.122-0.28,0.219-0.361,0.284c-0.089,0.065-0.136,0.101-0.136,0.101
				s-0.047-0.035-0.136-0.101c-0.081-0.065-0.236-0.162-0.361-0.284c-0.286-0.245-0.631-0.596-0.952-1.016
				c-0.633-0.841-1.064-1.961-1.051-3.081c-0.007-1.121,0.427-2.241,1.058-3.082c0.32-0.42,0.663-0.771,0.948-1.016
				c0.124-0.122,0.279-0.219,0.359-0.284C313.102,87.849,313.148,87.814,313.148,87.814z"/>
		</g>
		<g>
			<path fill="#FFFFFF" d="M308.666,91.804c0,0,0.035-0.047,0.101-0.135c0.065-0.08,0.162-0.235,0.284-0.359
				c0.245-0.285,0.596-0.628,1.016-0.948c0.841-0.631,1.961-1.064,3.082-1.058c1.12-0.014,2.24,0.418,3.081,1.051
				c0.42,0.321,0.771,0.666,1.016,0.952c0.122,0.125,0.219,0.28,0.284,0.361c0.065,0.089,0.101,0.136,0.101,0.136
				s-0.035,0.047-0.101,0.136c-0.065,0.081-0.162,0.236-0.284,0.361c-0.245,0.286-0.596,0.631-1.016,0.952
				c-0.841,0.633-1.961,1.064-3.081,1.051c-1.121,0.007-2.241-0.427-3.082-1.058c-0.42-0.32-0.771-0.663-1.016-0.948
				c-0.122-0.124-0.219-0.279-0.284-0.359C308.701,91.851,308.666,91.804,308.666,91.804z"/>
		</g>
	</g>
	<g>
		<polygon fill="#FFFFFF" points="67,665.771 68.934,664.302 68.368,666.235 68.934,668.17 67,666.701 65.066,668.17 
			65.632,666.235 65.066,664.302 		"/>
		<g>
			<path fill="#FFFFFF" d="M67,662.262c0,0,0.047,0.035,0.135,0.101c0.08,0.065,0.235,0.162,0.359,0.284
				c0.285,0.245,0.628,0.596,0.948,1.016c0.631,0.841,1.064,1.961,1.058,3.082c0.014,1.12-0.418,2.24-1.051,3.081
				c-0.321,0.42-0.666,0.771-0.952,1.016c-0.125,0.122-0.28,0.219-0.361,0.284C67.047,671.19,67,671.226,67,671.226
				s-0.047-0.035-0.136-0.101c-0.081-0.065-0.236-0.162-0.361-0.284c-0.286-0.245-0.631-0.596-0.952-1.016
				c-0.633-0.841-1.064-1.961-1.051-3.081c-0.007-1.121,0.427-2.241,1.058-3.082c0.32-0.42,0.663-0.771,0.948-1.016
				c0.124-0.122,0.279-0.219,0.359-0.284C66.954,662.297,67,662.262,67,662.262z"/>
		</g>
		<g>
			<path fill="#FFFFFF" d="M62.518,666.252c0,0,0.035-0.047,0.101-0.135c0.065-0.08,0.162-0.235,0.284-0.359
				c0.245-0.285,0.596-0.628,1.016-0.948c0.841-0.631,1.961-1.064,3.082-1.058c1.12-0.014,2.24,0.418,3.081,1.051
				c0.42,0.321,0.771,0.666,1.016,0.952c0.122,0.125,0.219,0.28,0.284,0.361c0.065,0.089,0.101,0.136,0.101,0.136
				s-0.035,0.047-0.101,0.136c-0.065,0.081-0.162,0.236-0.284,0.361c-0.245,0.286-0.596,0.631-1.016,0.952
				c-0.841,0.633-1.961,1.064-3.081,1.051c-1.121,0.007-2.241-0.427-3.082-1.058c-0.42-0.32-0.771-0.663-1.016-0.948
				c-0.122-0.124-0.219-0.279-0.284-0.359C62.553,666.299,62.518,666.252,62.518,666.252z"/>
		</g>
	</g>
	<g>
		<polygon fill="#FFFFFF" points="931.48,1540.546 933.414,1539.076 932.848,1541.01 933.414,1542.944 931.48,1541.476 
			929.546,1542.944 930.112,1541.01 929.546,1539.076 		"/>
		<g>
			<path fill="#FFFFFF" d="M931.48,1537.036c0,0,0.047,0.035,0.135,0.101c0.08,0.065,0.235,0.162,0.359,0.284
				c0.285,0.245,0.628,0.596,0.948,1.016c0.631,0.841,1.064,1.961,1.058,3.082c0.014,1.12-0.418,2.24-1.051,3.081
				c-0.321,0.42-0.666,0.771-0.952,1.016c-0.125,0.122-0.28,0.219-0.361,0.284c-0.089,0.065-0.136,0.101-0.136,0.101
				s-0.047-0.035-0.136-0.101c-0.081-0.065-0.236-0.162-0.361-0.284c-0.286-0.245-0.631-0.596-0.952-1.016
				c-0.633-0.841-1.064-1.961-1.051-3.081c-0.007-1.121,0.427-2.241,1.058-3.082c0.32-0.42,0.663-0.771,0.948-1.016
				c0.124-0.122,0.279-0.219,0.359-0.284C931.434,1537.071,931.48,1537.036,931.48,1537.036z"/>
		</g>
		<g>
			<path fill="#FFFFFF" d="M926.998,1541.026c0,0,0.035-0.047,0.101-0.135c0.065-0.08,0.162-0.235,0.284-0.359
				c0.245-0.285,0.596-0.628,1.016-0.948c0.841-0.631,1.961-1.064,3.082-1.058c1.12-0.014,2.24,0.418,3.081,1.051
				c0.42,0.321,0.771,0.666,1.016,0.952c0.122,0.125,0.219,0.28,0.284,0.361c0.065,0.089,0.101,0.136,0.101,0.136
				s-0.035,0.047-0.101,0.136c-0.065,0.081-0.162,0.236-0.284,0.361c-0.245,0.286-0.596,0.631-1.016,0.952
				c-0.841,0.633-1.961,1.064-3.081,1.051c-1.121,0.007-2.241-0.427-3.082-1.058c-0.42-0.32-0.771-0.663-1.016-0.948
				c-0.122-0.124-0.219-0.279-0.284-0.359C927.033,1541.073,926.998,1541.026,926.998,1541.026z"/>
		</g>
	</g>
	<g>
		<polygon fill="#FFFFFF" points="176.059,1401.097 177.993,1399.627 177.426,1401.561 177.993,1403.495 176.059,1402.026 
			174.125,1403.495 174.691,1401.561 174.125,1399.627 		"/>
		<g>
			<path fill="#FFFFFF" d="M176.059,1397.587c0,0,0.047,0.035,0.135,0.101c0.08,0.065,0.235,0.162,0.359,0.284
				c0.285,0.245,0.628,0.596,0.948,1.016c0.631,0.841,1.064,1.961,1.058,3.082c0.014,1.12-0.418,2.24-1.051,3.081
				c-0.321,0.42-0.666,0.771-0.952,1.016c-0.125,0.122-0.28,0.219-0.361,0.284c-0.089,0.065-0.136,0.101-0.136,0.101
				s-0.047-0.035-0.136-0.101c-0.081-0.065-0.236-0.162-0.361-0.284c-0.286-0.245-0.631-0.596-0.952-1.016
				c-0.633-0.841-1.064-1.961-1.051-3.081c-0.007-1.121,0.427-2.241,1.058-3.082c0.32-0.42,0.663-0.771,0.948-1.016
				c0.124-0.122,0.279-0.219,0.359-0.284C176.012,1397.622,176.059,1397.587,176.059,1397.587z"/>
		</g>
		<g>
			<path fill="#FFFFFF" d="M171.577,1401.577c0,0,0.035-0.047,0.101-0.135c0.065-0.08,0.162-0.235,0.284-0.359
				c0.245-0.285,0.596-0.628,1.016-0.948c0.841-0.631,1.961-1.064,3.082-1.058c1.12-0.014,2.24,0.418,3.081,1.051
				c0.42,0.321,0.771,0.666,1.016,0.952c0.122,0.125,0.219,0.28,0.284,0.361c0.065,0.089,0.101,0.136,0.101,0.136
				s-0.035,0.047-0.101,0.136c-0.065,0.081-0.162,0.236-0.284,0.361c-0.245,0.286-0.596,0.631-1.016,0.952
				c-0.841,0.633-1.961,1.064-3.081,1.051c-1.121,0.007-2.241-0.427-3.082-1.058c-0.42-0.32-0.771-0.663-1.016-0.948
				c-0.122-0.124-0.219-0.279-0.284-0.359C171.612,1401.624,171.577,1401.577,171.577,1401.577z"/>
		</g>
	</g>
	<g>
		<polygon fill="#FFFFFF" points="426.579,1484.434 428.513,1482.964 427.946,1484.897 428.513,1486.832 426.579,1485.363 
			424.645,1486.832 425.211,1484.897 424.645,1482.964 		"/>
		<g>
			<path fill="#FFFFFF" d="M426.579,1480.924c0,0,0.047,0.035,0.135,0.101c0.08,0.065,0.235,0.162,0.359,0.284
				c0.285,0.245,0.628,0.596,0.948,1.016c0.631,0.841,1.064,1.961,1.058,3.082c0.014,1.12-0.418,2.24-1.051,3.081
				c-0.321,0.42-0.666,0.771-0.952,1.016c-0.125,0.122-0.28,0.219-0.361,0.284c-0.089,0.065-0.136,0.101-0.136,0.101
				s-0.047-0.035-0.136-0.101c-0.081-0.065-0.236-0.162-0.361-0.284c-0.286-0.245-0.631-0.596-0.952-1.016
				c-0.633-0.841-1.064-1.961-1.051-3.081c-0.007-1.121,0.427-2.241,1.058-3.082c0.32-0.42,0.663-0.771,0.948-1.016
				c0.124-0.122,0.279-0.219,0.359-0.284C426.532,1480.959,426.579,1480.924,426.579,1480.924z"/>
		</g>
		<g>
			<path fill="#FFFFFF" d="M422.097,1484.914c0,0,0.035-0.047,0.101-0.135c0.065-0.08,0.162-0.235,0.284-0.359
				c0.245-0.285,0.596-0.628,1.016-0.948c0.841-0.631,1.961-1.064,3.082-1.058c1.12-0.014,2.24,0.418,3.081,1.051
				c0.42,0.321,0.771,0.666,1.016,0.952c0.122,0.125,0.219,0.28,0.284,0.361c0.065,0.089,0.101,0.136,0.101,0.136
				s-0.035,0.047-0.101,0.136c-0.065,0.081-0.162,0.236-0.284,0.361c-0.245,0.286-0.596,0.631-1.016,0.952
				c-0.841,0.633-1.961,1.064-3.081,1.051c-1.121,0.007-2.241-0.427-3.082-1.058c-0.42-0.32-0.771-0.663-1.016-0.948
				c-0.122-0.124-0.219-0.279-0.284-0.359C422.132,1484.961,422.097,1484.914,422.097,1484.914z"/>
		</g>
	</g>
	<g>
		<polygon fill="#FFFFFF" points="149.095,124.433 151.029,122.963 150.462,124.897 151.029,126.832 149.095,125.363 
			147.161,126.832 147.727,124.897 147.161,122.963 		"/>
		<g>
			<path fill="#FFFFFF" d="M149.095,120.923c0,0,0.047,0.035,0.135,0.101c0.08,0.065,0.235,0.162,0.359,0.284
				c0.285,0.245,0.628,0.596,0.948,1.016c0.631,0.841,1.064,1.961,1.058,3.082c0.014,1.12-0.418,2.24-1.051,3.081
				c-0.321,0.42-0.666,0.771-0.952,1.016c-0.125,0.122-0.28,0.219-0.361,0.284c-0.089,0.065-0.136,0.101-0.136,0.101
				s-0.047-0.035-0.136-0.101c-0.081-0.065-0.236-0.162-0.361-0.284c-0.286-0.245-0.631-0.596-0.952-1.016
				c-0.633-0.841-1.064-1.961-1.051-3.081c-0.007-1.121,0.427-2.241,1.058-3.082c0.32-0.42,0.663-0.771,0.948-1.016
				c0.124-0.122,0.279-0.219,0.359-0.284C149.048,120.958,149.095,120.923,149.095,120.923z"/>
		</g>
		<g>
			<path fill="#FFFFFF" d="M144.613,124.914c0,0,0.035-0.047,0.101-0.135c0.065-0.08,0.162-0.235,0.284-0.359
				c0.245-0.285,0.596-0.628,1.016-0.948c0.841-0.631,1.961-1.064,3.082-1.058c1.12-0.014,2.24,0.418,3.081,1.051
				c0.42,0.321,0.771,0.666,1.016,0.952c0.122,0.125,0.219,0.28,0.284,0.361c0.065,0.089,0.101,0.136,0.101,0.136
				s-0.035,0.047-0.101,0.136c-0.065,0.081-0.162,0.236-0.284,0.361c-0.245,0.286-0.596,0.631-1.016,0.952
				c-0.841,0.633-1.961,1.064-3.081,1.051c-1.121,0.007-2.241-0.427-3.082-1.058c-0.42-0.32-0.771-0.663-1.016-0.948
				c-0.122-0.124-0.219-0.279-0.284-0.359C144.648,124.96,144.613,124.914,144.613,124.914z"/>
		</g>
	</g>
	<g>
		<g>
			<path fill="#999999" d="M943.864,211.26c3.225,0,3.225-5,0-5S940.64,211.26,943.864,211.26L943.864,211.26z"/>
		</g>
	</g>
	<g>
		<g>
			<path fill="#999999" d="M88.778,787.318c3.224,0,3.224-5,0-5S85.554,787.318,88.778,787.318L88.778,787.318z"/>
		</g>
	</g>
	<g>
		<g>
			<path fill="#999999" d="M886.858,1264.365c3.225,0,3.225-5,0-5S883.634,1264.365,886.858,1264.365L886.858,1264.365z"/>
		</g>
	</g>
	<g>
		<g>
			<path fill="#999999" d="M73.777,1228.362c3.224,0,3.224-5,0-5S70.553,1228.362,73.777,1228.362L73.777,1228.362z"/>
		</g>
	</g>
	<g>
		<g>
			<path fill="#999999" d="M841.854,787.318c3.225,0,3.225-5,0-5S838.629,787.318,841.854,787.318L841.854,787.318z"/>
		</g>
	</g>
	<g>
		<g>
			<path fill="#999999" d="M874.857,445.284c3.225,0,3.225-5,0-5S871.633,445.284,874.857,445.284L874.857,445.284z"/>
		</g>
	</g>
	<g>
		<g>
			<path fill="#999999" d="M265.796,157.255c3.224,0,3.224-5,0-5S262.572,157.255,265.796,157.255L265.796,157.255z"/>
		</g>
	</g>
	<g>
		<g>
			<path fill="#999999" d="M235.793,22.241c3.224,0,3.224-5,0-5S232.569,22.241,235.793,22.241L235.793,22.241z"/>
		</g>
	</g>
	<g>
		<g>
			<path fill="#999999" d="M871.857,1393.379c3.225,0,3.225-5,0-5S868.633,1393.379,871.857,1393.379L871.857,1393.379z"/>
		</g>
	</g>
	<g>
		<g>
			<path fill="#2D2A4C" d="M137,325.5c3.224,0,3.224-5,0-5S133.776,325.5,137,325.5L137,325.5z"/>
		</g>
	</g>
	<g>
		<g>
			<path fill="#2D2A4C" d="M209,461.5c3.224,0,3.224-5,0-5S205.776,461.5,209,461.5L209,461.5z"/>
		</g>
	</g>
	<g>
		<g>
			<path fill="#2D2A4C" d="M245,657.5c3.224,0,3.224-5,0-5S241.776,657.5,245,657.5L245,657.5z"/>
		</g>
	</g>
	<g>
		<g>
			<path fill="#2D2A4C" d="M125,445.5c3.224,0,3.224-5,0-5S121.776,445.5,125,445.5L125,445.5z"/>
		</g>
	</g>
	<g>
		<polygon fill="#FFFFFF" points="181.859,499.045 187.66,494.639 185.96,500.44 187.66,506.24 181.859,501.834 176.058,506.24 
			177.757,500.44 176.058,494.639 		"/>
		<g>
			<path fill="#FFFFFF" d="M181.859,488.52c0,0,0.217,0.42,0.494,1.155c0.287,0.735,0.639,1.785,0.947,3.046
				c0.312,1.26,0.586,2.73,0.77,4.306c0.094,0.788,0.168,1.602,0.211,2.429c0.055,0.827,0.062,1.668,0.076,2.508
				c-0.012,0.84-0.018,1.681-0.072,2.508c-0.037,0.827-0.119,1.641-0.209,2.429c-0.182,1.575-0.455,3.046-0.768,4.306
				c-0.311,1.261-0.662,2.311-0.951,3.046c-0.279,0.735-0.498,1.155-0.498,1.155s-0.219-0.42-0.498-1.155
				c-0.289-0.735-0.641-1.785-0.951-3.046c-0.312-1.26-0.586-2.73-0.768-4.306c-0.09-0.788-0.172-1.602-0.209-2.429
				c-0.057-0.827-0.061-1.668-0.074-2.508c0.014-0.84,0.021-1.681,0.078-2.508c0.043-0.827,0.117-1.641,0.211-2.429
				c0.184-1.575,0.457-3.046,0.77-4.306c0.309-1.261,0.658-2.311,0.947-3.046C181.642,488.94,181.859,488.52,181.859,488.52z"/>
		</g>
		<g>
			<path fill="#FFFFFF" d="M168.416,500.487c0,0,0.42-0.217,1.154-0.494c0.736-0.288,1.787-0.64,3.047-0.948
				c1.26-0.312,2.73-0.585,4.307-0.769c0.787-0.094,1.602-0.169,2.428-0.211c0.828-0.056,1.668-0.063,2.508-0.077
				c0.84,0.014,1.68,0.018,2.508,0.074c0.826,0.036,1.641,0.118,2.428,0.208c1.576,0.182,3.047,0.455,4.307,0.768
				c1.26,0.311,2.311,0.662,3.045,0.952c0.736,0.278,1.156,0.497,1.156,0.497s-0.42,0.219-1.156,0.497
				c-0.734,0.29-1.785,0.642-3.045,0.952c-1.26,0.312-2.73,0.586-4.307,0.768c-0.787,0.09-1.602,0.172-2.428,0.208
				c-0.828,0.057-1.668,0.061-2.508,0.074c-0.84-0.014-1.68-0.021-2.508-0.077c-0.826-0.042-1.641-0.117-2.428-0.211
				c-1.576-0.184-3.047-0.457-4.307-0.769c-1.26-0.309-2.311-0.66-3.047-0.948C168.835,500.704,168.416,500.487,168.416,500.487z"/>
		</g>
	</g>
	<g>
		<polygon fill="#FFFFFF" points="543.349,339.88 537.64,344.404 539.22,338.569 537.403,332.806 543.292,337.091 549.002,332.569 
			547.421,338.402 549.238,344.167 		"/>
		<g>
			<path fill="#FFFFFF" d="M543.563,350.403c0,0-0.226-0.416-0.519-1.145c-0.302-0.729-0.675-1.772-1.009-3.026
				c-0.338-1.253-0.642-2.718-0.856-4.29c-0.109-0.786-0.201-1.598-0.261-2.424c-0.072-0.826-0.098-1.666-0.129-2.505
				c-0.003-0.84-0.017-1.681,0.023-2.508c0.02-0.828,0.085-1.644,0.158-2.433c0.149-1.579,0.393-3.055,0.68-4.321
				c0.284-1.267,0.615-2.324,0.89-3.065c0.264-0.741,0.474-1.165,0.474-1.165s0.227,0.416,0.521,1.145
				c0.305,0.729,0.679,1.772,1.014,3.025c0.339,1.254,0.643,2.718,0.856,4.29c0.105,0.786,0.204,1.598,0.257,2.424
				c0.073,0.826,0.095,1.666,0.126,2.505c0.003,0.84,0.012,1.681-0.027,2.509c-0.024,0.828-0.083,1.643-0.161,2.432
				c-0.15,1.579-0.394,3.055-0.68,4.321c-0.283,1.266-0.613,2.323-0.886,3.064C543.771,349.979,543.563,350.403,543.563,350.403z"/>
		</g>
		<g>
			<path fill="#FFFFFF" d="M556.76,338.165c0,0-0.416,0.225-1.145,0.518c-0.729,0.302-1.772,0.675-3.026,1.009
				c-1.254,0.338-2.718,0.641-4.289,0.856c-0.786,0.11-1.599,0.202-2.424,0.26c-0.826,0.073-1.666,0.098-2.506,0.129
				c-0.84,0.004-1.681,0.017-2.509-0.023c-0.827-0.02-1.643-0.085-2.432-0.158c-1.579-0.15-3.055-0.393-4.321-0.68
				c-1.267-0.284-2.323-0.615-3.064-0.89c-0.74-0.264-1.165-0.474-1.165-0.474s0.416-0.227,1.145-0.521
				c0.729-0.304,1.772-0.678,3.026-1.013c1.253-0.339,2.718-0.642,4.289-0.856c0.786-0.105,1.598-0.204,2.424-0.257
				c0.826-0.073,1.666-0.095,2.506-0.125c0.84-0.003,1.681-0.013,2.509,0.026c0.827,0.025,1.643,0.083,2.432,0.162
				c1.579,0.151,3.055,0.394,4.321,0.681c1.267,0.283,2.323,0.613,3.064,0.885C556.335,337.957,556.76,338.165,556.76,338.165z"/>
		</g>
	</g>
	<g>
		<polygon fill="#FFFFFF" points="658.264,625.907 656.36,627.416 656.888,625.471 656.281,623.548 658.245,624.977 
			660.149,623.469 659.622,625.415 660.229,627.336 		"/>
		<g>
			<path fill="#FFFFFF" d="M658.336,629.416c0,0-0.048-0.034-0.137-0.098c-0.082-0.063-0.238-0.157-0.365-0.277
				c-0.29-0.239-0.64-0.582-0.969-0.996c-0.648-0.827-1.104-1.939-1.12-3.059c-0.037-1.12,0.371-2.249,0.987-3.102
				c0.312-0.427,0.649-0.784,0.931-1.035c0.123-0.125,0.275-0.224,0.355-0.292c0.087-0.067,0.134-0.104,0.134-0.104
				s0.048,0.034,0.138,0.098c0.083,0.064,0.239,0.157,0.367,0.277c0.291,0.239,0.644,0.582,0.973,0.996
				c0.65,0.827,1.104,1.938,1.113,3.059c0.03,1.12-0.38,2.25-0.994,3.103c-0.312,0.426-0.647,0.784-0.927,1.035
				c-0.122,0.125-0.274,0.224-0.354,0.292C658.382,629.379,658.336,629.416,658.336,629.416z"/>
		</g>
		<g>
			<path fill="#FFFFFF" d="M662.735,625.335c0,0-0.034,0.048-0.098,0.137c-0.064,0.082-0.157,0.238-0.277,0.366
				c-0.239,0.29-0.582,0.639-0.996,0.968c-0.827,0.648-1.938,1.105-3.059,1.12c-1.12,0.038-2.249-0.372-3.103-0.988
				c-0.427-0.312-0.783-0.649-1.034-0.931c-0.125-0.123-0.225-0.275-0.292-0.355c-0.067-0.087-0.104-0.134-0.104-0.134
				s0.034-0.048,0.098-0.138c0.064-0.083,0.157-0.239,0.277-0.367c0.239-0.291,0.582-0.643,0.996-0.972
				c0.827-0.65,1.938-1.105,3.059-1.113c1.12-0.03,2.25,0.38,3.103,0.995c0.427,0.312,0.784,0.647,1.034,0.926
				c0.125,0.123,0.225,0.275,0.292,0.354C662.699,625.289,662.735,625.335,662.735,625.335z"/>
		</g>
	</g>
	<g>
		<g>
			<path fill="#999999" d="M634.062,509.829c3.225,0,3.225-5,0-5S630.838,509.829,634.062,509.829L634.062,509.829z"/>
		</g>
	</g>
	<g>
		<g>
			<path fill="#2D2A4C" d="M595.27,972.534c3.225,0,3.225-5,0-5S592.045,972.534,595.27,972.534L595.27,972.534z"/>
		</g>
	</g>
	<g>
		<g>
			<path fill="#2D2A4C" d="M520.511,838.031c3.225,0,3.225-5,0-5S517.286,838.031,520.511,838.031L520.511,838.031z"/>
		</g>
	</g>
	<g>
		<g>
			<path fill="#2D2A4C" d="M480.521,642.806c3.224,0,3.224-5,0-5S477.297,642.806,480.521,642.806L480.521,642.806z"/>
		</g>
	</g>
	<g>
		<g>
			<path fill="#2D2A4C" d="M604.819,852.314c3.225,0,3.225-5,0-5S601.595,852.314,604.819,852.314L604.819,852.314z"/>
		</g>
	</g>
	<g>
		<polygon fill="#FFFFFF" points="546.829,794.94 541.119,799.464 542.7,793.63 540.883,787.866 546.772,792.152 552.482,787.629 
			550.901,793.462 552.719,799.228 		"/>
		<g>
			<path fill="#FFFFFF" d="M547.044,805.464c0,0-0.226-0.416-0.518-1.145c-0.303-0.729-0.676-1.772-1.01-3.026
				c-0.338-1.254-0.641-2.718-0.856-4.29c-0.109-0.786-0.201-1.598-0.26-2.424c-0.073-0.826-0.098-1.666-0.129-2.505
				c-0.004-0.84-0.017-1.681,0.022-2.509c0.021-0.828,0.085-1.643,0.159-2.432c0.149-1.579,0.393-3.055,0.68-4.321
				c0.284-1.267,0.615-2.324,0.89-3.065c0.264-0.741,0.474-1.165,0.474-1.165s0.227,0.416,0.521,1.145
				c0.305,0.729,0.679,1.772,1.014,3.026c0.339,1.253,0.642,2.718,0.856,4.29c0.105,0.786,0.203,1.598,0.257,2.424
				c0.073,0.826,0.095,1.666,0.125,2.505c0.003,0.84,0.013,1.681-0.026,2.509c-0.025,0.828-0.084,1.643-0.161,2.433
				c-0.151,1.579-0.395,3.054-0.681,4.321c-0.283,1.267-0.613,2.323-0.886,3.064C547.252,805.039,547.044,805.464,547.044,805.464z"
				/>
		</g>
		<g>
			<path fill="#FFFFFF" d="M560.24,793.225c0,0-0.416,0.225-1.145,0.518c-0.729,0.302-1.772,0.675-3.026,1.009
				c-1.254,0.338-2.718,0.641-4.289,0.856c-0.786,0.11-1.598,0.202-2.424,0.26c-0.826,0.073-1.666,0.098-2.506,0.129
				c-0.84,0.003-1.681,0.016-2.509-0.023c-0.827-0.02-1.643-0.085-2.432-0.158c-1.579-0.15-3.055-0.393-4.321-0.68
				c-1.267-0.284-2.323-0.615-3.064-0.89c-0.74-0.264-1.165-0.474-1.165-0.474s0.416-0.227,1.145-0.521
				c0.729-0.304,1.772-0.678,3.026-1.013c1.253-0.339,2.718-0.642,4.289-0.856c0.786-0.105,1.598-0.204,2.424-0.257
				c0.826-0.073,1.666-0.095,2.506-0.125c0.84-0.003,1.681-0.012,2.509,0.027c0.827,0.025,1.643,0.083,2.432,0.161
				c1.579,0.151,3.055,0.394,4.321,0.681c1.267,0.283,2.323,0.613,3.064,0.885C559.815,793.017,560.24,793.225,560.24,793.225z"/>
		</g>
	</g>
	<g>
		<polygon fill="#FFFFFF" points="370.918,1080.736 376.719,1076.33 375.02,1082.131 376.719,1087.931 370.918,1083.525 
			365.117,1087.931 366.816,1082.131 365.117,1076.33 		"/>
		<g>
			<path fill="#FFFFFF" d="M370.918,1070.211c0,0,0.217,0.42,0.494,1.155c0.287,0.735,0.639,1.785,0.947,3.046
				c0.312,1.26,0.586,2.73,0.77,4.306c0.094,0.788,0.168,1.602,0.211,2.429c0.055,0.827,0.062,1.668,0.076,2.508
				c-0.012,0.84-0.018,1.681-0.072,2.508c-0.037,0.827-0.119,1.641-0.209,2.429c-0.182,1.575-0.455,3.046-0.768,4.306
				c-0.311,1.261-0.662,2.311-0.951,3.046c-0.279,0.735-0.498,1.155-0.498,1.155s-0.219-0.42-0.498-1.155
				c-0.289-0.735-0.641-1.785-0.951-3.046c-0.312-1.26-0.586-2.73-0.768-4.306c-0.09-0.788-0.172-1.602-0.209-2.429
				c-0.057-0.827-0.061-1.668-0.074-2.508c0.014-0.84,0.021-1.681,0.078-2.508c0.043-0.827,0.117-1.641,0.211-2.429
				c0.184-1.575,0.457-3.046,0.77-4.306c0.309-1.261,0.658-2.311,0.947-3.046C370.701,1070.631,370.918,1070.211,370.918,1070.211z"
				/>
		</g>
		<g>
			<path fill="#FFFFFF" d="M357.475,1082.178c0,0,0.42-0.217,1.154-0.494c0.736-0.288,1.787-0.64,3.047-0.948
				c1.26-0.312,2.73-0.585,4.307-0.769c0.787-0.094,1.602-0.169,2.428-0.211c0.828-0.056,1.668-0.063,2.508-0.077
				c0.84,0.014,1.68,0.018,2.508,0.074c0.826,0.036,1.641,0.118,2.428,0.208c1.576,0.182,3.047,0.455,4.307,0.768
				c1.26,0.311,2.311,0.662,3.045,0.952c0.736,0.278,1.156,0.497,1.156,0.497s-0.42,0.219-1.156,0.497
				c-0.734,0.29-1.785,0.642-3.045,0.952c-1.26,0.312-2.73,0.586-4.307,0.768c-0.787,0.09-1.602,0.172-2.428,0.208
				c-0.828,0.057-1.668,0.061-2.508,0.074c-0.84-0.014-1.68-0.021-2.508-0.077c-0.826-0.042-1.641-0.117-2.428-0.211
				c-1.576-0.184-3.047-0.457-4.307-0.769c-1.26-0.309-2.311-0.66-3.047-0.948C357.895,1082.395,357.475,1082.178,357.475,1082.178z
				"/>
		</g>
	</g>
	<g>
		<polygon fill="#FFFFFF" points="545.625,1145.269 547.559,1143.799 546.992,1145.732 547.559,1147.667 545.625,1146.198 
			543.689,1147.667 544.256,1145.732 543.689,1143.799 		"/>
		<g>
			<path fill="#FFFFFF" d="M545.625,1141.759c0,0,0.047,0.035,0.135,0.101c0.08,0.065,0.234,0.162,0.359,0.284
				c0.285,0.245,0.627,0.596,0.947,1.016c0.631,0.841,1.064,1.961,1.059,3.082c0.014,1.12-0.418,2.24-1.051,3.081
				c-0.322,0.42-0.666,0.771-0.953,1.016c-0.125,0.122-0.279,0.219-0.361,0.284c-0.088,0.065-0.135,0.101-0.135,0.101
				s-0.047-0.035-0.137-0.101c-0.08-0.065-0.236-0.162-0.361-0.284c-0.285-0.245-0.631-0.596-0.951-1.016
				c-0.633-0.841-1.064-1.961-1.051-3.081c-0.008-1.121,0.426-2.241,1.057-3.082c0.32-0.42,0.664-0.771,0.949-1.016
				c0.123-0.122,0.279-0.219,0.359-0.284C545.578,1141.794,545.625,1141.759,545.625,1141.759z"/>
		</g>
		<g>
			<path fill="#FFFFFF" d="M541.143,1145.749c0,0,0.035-0.047,0.1-0.135c0.066-0.08,0.162-0.235,0.285-0.359
				c0.244-0.285,0.596-0.628,1.016-0.948c0.84-0.631,1.961-1.064,3.082-1.058c1.119-0.014,2.24,0.418,3.08,1.051
				c0.42,0.321,0.771,0.666,1.016,0.952c0.123,0.125,0.219,0.28,0.285,0.361c0.064,0.089,0.1,0.136,0.1,0.136
				s-0.035,0.047-0.1,0.136c-0.066,0.081-0.162,0.236-0.285,0.361c-0.244,0.286-0.596,0.631-1.016,0.952
				c-0.84,0.633-1.961,1.064-3.08,1.051c-1.121,0.007-2.242-0.427-3.082-1.058c-0.42-0.32-0.771-0.663-1.016-0.948
				c-0.123-0.124-0.219-0.279-0.285-0.359C541.178,1145.796,541.143,1145.749,541.143,1145.749z"/>
		</g>
	</g>
	<g>
		<polygon fill="#FFFFFF" points="796.145,1228.605 798.078,1227.136 797.512,1229.069 798.078,1231.004 796.145,1229.535 
			794.21,1231.004 794.776,1229.069 794.21,1227.136 		"/>
		<g>
			<path fill="#FFFFFF" d="M796.145,1225.096c0,0,0.047,0.035,0.135,0.101c0.08,0.065,0.235,0.162,0.359,0.284
				c0.285,0.245,0.628,0.596,0.948,1.016c0.631,0.841,1.064,1.961,1.058,3.082c0.014,1.12-0.418,2.24-1.051,3.081
				c-0.321,0.42-0.666,0.771-0.952,1.016c-0.125,0.122-0.28,0.219-0.361,0.284c-0.089,0.065-0.136,0.101-0.136,0.101
				s-0.047-0.035-0.136-0.101c-0.081-0.065-0.236-0.162-0.361-0.284c-0.286-0.245-0.631-0.596-0.952-1.016
				c-0.633-0.841-1.064-1.961-1.051-3.081c-0.007-1.121,0.427-2.241,1.058-3.082c0.32-0.42,0.663-0.771,0.948-1.016
				c0.124-0.122,0.279-0.219,0.359-0.284C796.098,1225.131,796.145,1225.096,796.145,1225.096z"/>
		</g>
		<g>
			<path fill="#FFFFFF" d="M791.662,1229.086c0,0,0.035-0.047,0.101-0.135c0.065-0.08,0.162-0.235,0.284-0.359
				c0.245-0.285,0.596-0.628,1.016-0.948c0.841-0.631,1.961-1.064,3.082-1.058c1.12-0.014,2.24,0.418,3.081,1.051
				c0.42,0.321,0.771,0.666,1.016,0.952c0.122,0.125,0.219,0.28,0.284,0.361c0.065,0.089,0.101,0.136,0.101,0.136
				s-0.035,0.047-0.101,0.136c-0.065,0.081-0.162,0.236-0.284,0.361c-0.245,0.286-0.596,0.631-1.016,0.952
				c-0.841,0.633-1.961,1.064-3.081,1.051c-1.121,0.007-2.241-0.427-3.082-1.058c-0.42-0.32-0.771-0.663-1.016-0.948
				c-0.122-0.124-0.219-0.279-0.284-0.359C791.697,1229.133,791.662,1229.086,791.662,1229.086z"/>
		</g>
	</g>
	<g>
		<g>
			<path fill="#999999" d="M443.343,972.534c3.224,0,3.224-5,0-5S440.119,972.534,443.343,972.534L443.343,972.534z"/>
		</g>
	</g>
</g>
</svg>
